<svg width="209" height="90" viewBox="0 0 209 90" fill="none" xmlns="http://www.w3.org/2000/svg">
<g id="lucide:home">
<path id="Vector" d="M185.609 70.5878H154.574C150.46 70.585 146.513 71.6806 143.597 73.6344C140.681 75.5882 139.036 78.2408 139.021 81.0104V101.904C139.019 103.279 139.42 104.642 140.201 105.913C140.981 107.184 142.127 108.339 143.572 109.311C145.016 110.284 146.732 111.055 148.62 111.581C150.508 112.107 152.531 112.376 154.574 112.375H185.609C189.722 112.364 193.66 111.255 196.56 109.292C199.461 107.329 201.087 104.673 201.083 101.904V81.0104C201.085 79.642 200.686 78.2867 199.909 77.0222C199.132 75.7577 197.993 74.6088 196.555 73.6412C195.118 72.6736 193.411 71.9063 191.533 71.3833C189.655 70.8603 187.642 70.5918 185.609 70.5932M99.4243 70.5878H68.3894C64.2775 70.6035 60.342 71.7142 57.4427 73.6772C54.5434 75.6402 52.916 78.296 52.916 81.0643V101.958C52.9139 103.326 53.3127 104.682 54.0896 105.946C54.8664 107.211 56.0061 108.359 57.4434 109.327C58.8806 110.295 60.5872 111.062 62.4655 111.585C64.3438 112.108 66.3568 112.376 68.3894 112.375H99.4243C103.537 112.378 107.483 111.283 110.399 109.33C113.314 107.378 114.961 104.726 114.978 101.958V81.0643C114.98 79.6888 114.579 78.3266 113.798 77.0555C113.017 75.7845 111.872 74.6296 110.427 73.657C108.982 72.6844 107.267 71.9131 105.379 71.3874C103.491 70.8617 101.467 70.5918 99.4243 70.5932M99.4243 12.625H68.3894C66.3568 12.6236 64.3438 12.8921 62.4655 13.4151C60.5872 13.9381 58.8806 14.7053 57.4434 15.6729C56.0061 16.6406 54.8664 17.7895 54.0896 19.054C53.3127 20.3185 52.9139 21.6737 52.916 23.0421V43.9357C52.9117 46.7044 54.5381 49.3612 57.4385 51.324C60.339 53.2868 64.277 54.3954 68.3894 54.4068H99.4243C101.467 54.4082 103.491 54.1383 105.379 53.6126C107.267 53.0869 108.982 52.3156 110.427 51.343C111.872 50.3704 113.017 49.2155 113.798 47.9445C114.579 46.6735 114.98 45.3112 114.978 43.9357V23.0421C114.961 20.2735 113.314 17.6223 110.399 15.6697C107.483 13.717 103.537 12.6221 99.4243 12.625ZM185.609 12.625H154.574C150.462 12.6221 146.515 13.717 143.6 15.6697C140.684 17.6223 139.038 20.2735 139.021 23.0421V43.9357C139.023 46.7124 140.662 49.3749 143.579 51.3383C146.495 53.3017 150.45 54.4053 154.574 54.4068H185.609C189.722 54.3954 193.66 53.2868 196.56 51.324C199.461 49.3612 201.087 46.7044 201.083 43.9357V23.0421C201.085 21.6737 200.686 20.3185 199.909 19.054C199.132 17.7895 197.993 16.6406 196.555 15.6729C195.118 14.7053 193.411 13.9381 191.533 13.4151C189.655 12.8921 187.642 12.6236 185.609 12.625Z" stroke="#68C184" stroke-width="1.5" stroke-linecap="round" stroke-linejoin="round"/>
</g>
</svg>
