<svg width="187" height="164" viewBox="0 0 187 164" fill="none" xmlns="http://www.w3.org/2000/svg">
<g opacity="0.4">
<path d="M174.189 129.687H24.2691C17.2233 129.687 11.459 123.922 11.459 116.876V22.4644C11.459 15.4186 17.2233 9.6543 24.2691 9.6543H174.19C181.236 9.6543 187.001 15.4186 187.001 22.4644V116.876C186.999 123.922 181.235 129.687 174.189 129.687Z" fill="#2290AC"/>
<path d="M7.36977 8.27761C7.07687 8.27761 6.78396 8.16549 6.56085 7.94237L4.50936 5.89088C4.06199 5.44351 4.06199 4.7204 4.50936 4.27303C4.95672 3.82566 5.67984 3.82566 6.12721 4.27303L8.1787 6.32452C8.62607 6.77189 8.62607 7.495 8.1787 7.94237C7.95559 8.16663 7.66268 8.27761 7.36977 8.27761Z" fill="#2290AC"/>
<path d="M4.27901 15.4583H1.37854C0.745818 15.4583 0.234375 14.9457 0.234375 14.3141C0.234375 13.6825 0.745818 13.1699 1.37854 13.1699H4.27901C4.91174 13.1699 5.42318 13.6825 5.42318 14.3141C5.42318 14.9457 4.91174 15.4583 4.27901 15.4583Z" fill="#2290AC"/>
<path d="M14.6525 5.18284C14.0575 5.18284 13.5552 4.72288 13.5129 4.11991L13.3058 1.2263C13.26 0.595863 13.7349 0.0489504 14.3653 0.00318368C15.0083 -0.0437272 15.5426 0.433402 15.5873 1.06269L15.7944 3.95628C15.8401 4.58672 15.3653 5.13363 14.7349 5.1794C14.7074 5.18169 14.6799 5.18284 14.6525 5.18284Z" fill="#2290AC"/>
<path d="M112.039 117.352L158.059 163.371V117.352H112.039Z" fill="#2290AC"/>
<path d="M124.653 97.1875L122.424 87.4701C121.84 84.9209 121.833 82.2733 122.405 79.7218L125.506 65.8796C128.27 53.5387 122.007 41.2091 111.154 35.7835C111.247 35.5261 111.352 35.2755 111.414 35.002C112.205 31.4723 109.984 27.97 106.455 27.1793C102.926 26.3887 99.4233 28.6084 98.6327 32.1382C98.5709 32.4116 98.5606 32.6839 98.5343 32.9562C86.4039 33.2331 75.4782 41.7114 72.7139 54.0524L69.6132 67.8945C69.0411 70.446 67.9049 72.8385 66.2894 74.8946L60.1269 82.7321C57.4999 86.0742 59.2585 91.0147 63.4072 91.9438L117.756 104.12C121.905 105.049 125.604 101.332 124.653 97.1875Z" fill="white"/>
<path d="M83.6094 100.189C81.8211 99.7881 80.2147 101.34 80.5224 103.146C81.1426 106.794 83.9 109.883 87.7341 110.742C91.5682 111.602 95.3795 109.984 97.4973 106.949C98.5465 105.447 97.7559 103.358 95.9676 102.957L83.6094 100.189Z" fill="white"/>
<path d="M41.8726 80.9065C41.3188 80.9065 40.7753 80.6387 40.4447 80.1433C34.9996 71.9888 33.0568 62.2039 34.9732 52.5895C36.8897 42.975 42.4355 34.6821 50.5888 29.2382C51.3772 28.7118 52.4412 28.9247 52.9687 29.713C53.495 30.5013 53.2822 31.5677 52.495 32.094C45.1037 37.0288 40.0762 44.546 38.3394 53.2611C36.6025 61.9762 38.3634 70.8469 43.2982 78.2383C43.8245 79.0266 43.6117 80.0918 42.8245 80.6181C42.5316 80.8126 42.1998 80.9065 41.8726 80.9065Z" fill="white"/>
<path d="M49.1468 76.0491C48.593 76.0491 48.0496 75.7814 47.7189 75.2859C43.5724 69.0754 42.0919 61.6223 43.5518 54.2985C45.0106 46.9758 49.236 40.6589 55.4454 36.5124C56.2326 35.9849 57.299 36.1977 57.8253 36.9872C58.3516 37.7756 58.1388 38.8419 57.3516 39.3682C51.9031 43.0056 48.1983 48.5468 46.9168 54.9701C45.6365 61.3946 46.9351 67.9324 50.5713 73.3809C51.0976 74.1692 50.8848 75.2344 50.0976 75.7608C49.8058 75.9553 49.474 76.0491 49.1468 76.0491Z" fill="white"/>
<path d="M56.4223 71.194C55.8685 71.194 55.3251 70.9263 54.9944 70.4309C52.1443 66.1643 51.1271 61.0418 52.1306 56.0098C53.1329 50.9777 56.0356 46.6379 60.3034 43.7878C61.0905 43.2603 62.1557 43.4731 62.6832 44.2626C63.2095 45.0509 62.9967 46.1173 62.2095 46.6436C58.7038 48.9835 56.3216 52.5487 55.4978 56.6814C54.6729 60.8141 55.5093 65.0212 57.8491 68.5258C58.3754 69.3142 58.1626 70.3794 57.3754 70.9057C57.0814 71.1002 56.7507 71.194 56.4223 71.194Z" fill="white"/>
<path d="M140.821 105.063C140.2 105.063 139.601 104.724 139.295 104.135C138.86 103.293 139.191 102.256 140.033 101.821C147.93 97.7448 153.766 90.8363 156.468 82.3706C159.168 73.9037 158.409 64.8923 154.333 56.9952C153.898 56.1531 154.229 55.1177 155.071 54.6829C155.913 54.2504 156.948 54.5776 157.383 55.4209C161.881 64.1314 162.717 74.0731 159.738 83.4129C156.758 92.7539 150.319 100.374 141.609 104.872C141.356 105.001 141.086 105.063 140.821 105.063Z" fill="white"/>
<path d="M136.808 97.2908C136.186 97.2908 135.587 96.9521 135.281 96.3618C134.847 95.5196 135.177 94.483 136.019 94.0494C141.841 91.0436 146.143 85.9521 148.134 79.7118C150.123 73.4704 149.565 66.8274 146.559 61.007C146.125 60.1649 146.455 59.1294 147.297 58.6946C148.14 58.2621 149.175 58.5893 149.61 59.4326C153.035 66.0676 153.673 73.6397 151.403 80.7542C149.134 87.8686 144.229 93.673 137.595 97.0997C137.342 97.229 137.073 97.2908 136.808 97.2908Z" fill="white"/>
<path d="M132.796 89.5204C132.175 89.5204 131.575 89.1817 131.27 88.5924C130.835 87.7503 131.165 86.7137 132.008 86.2801C135.752 84.3476 138.52 81.0707 139.801 77.0558C141.081 73.0398 140.723 68.7675 138.788 65.0226C138.353 64.1805 138.684 63.1439 139.526 62.7102C140.369 62.2777 141.404 62.605 141.838 63.4482C146.698 72.8601 142.994 84.47 133.582 89.3304C133.33 89.4586 133.061 89.5204 132.796 89.5204Z" fill="white"/>
</g>
</svg>
