<svg width="24" height="24" viewBox="0 0 24 24" fill="none" xmlns="http://www.w3.org/2000/svg">
<path d="M8.116 17C7.65534 17 7.271 16.846 6.963 16.538C6.655 16.23 6.50067 15.8457 6.5 15.385V4.615C6.5 4.155 6.65434 3.77067 6.963 3.462C7.27167 3.15334 7.656 2.99934 8.116 3H18.885C19.345 3 19.7293 3.154 20.038 3.462C20.3467 3.77 20.5007 4.15434 20.5 4.615V15.385C20.5 15.845 20.346 16.229 20.038 16.537C19.73 16.845 19.3453 16.9993 18.884 17H8.116ZM8.116 16H18.885C19.0383 16 19.1793 15.936 19.308 15.808C19.4367 15.68 19.5007 15.539 19.5 15.385V4.615C19.5 4.46167 19.436 4.32067 19.308 4.192C19.18 4.06334 19.0387 3.99934 18.884 4H8.116C7.962 4 7.82067 4.064 7.692 4.192C7.56334 4.32 7.49934 4.461 7.5 4.615V15.385C7.5 15.5383 7.564 15.6793 7.692 15.808C7.82 15.9367 7.961 16.0007 8.115 16M5.115 20C4.655 20 4.27067 19.846 3.962 19.538C3.65334 19.23 3.49934 18.8457 3.5 18.385V7.14834C3.5 6.85378 3.73878 6.615 4.03334 6.615C4.29107 6.615 4.5 6.82394 4.5 7.08167V18.385C4.5 18.5383 4.564 18.6793 4.692 18.808C4.82 18.9367 4.961 19.0007 5.115 19H16.385C16.6611 19 16.885 19.2239 16.885 19.5C16.885 19.7761 16.6611 20 16.385 20H5.115Z" fill="#1A1C1E" fill-opacity="0.6"/>
<path d="M8.116 16H18.885C19.0383 16 19.1793 15.936 19.308 15.808C19.4367 15.68 19.5007 15.539 19.5 15.385V4.615C19.5 4.46167 19.436 4.32067 19.308 4.192C19.18 4.06334 19.0387 3.99934 18.884 4H8.116C7.962 4 7.82067 4.064 7.692 4.192C7.56334 4.32 7.49934 4.461 7.5 4.615V15.385C7.5 15.5383 7.564 15.6793 7.692 15.808C7.82 15.9367 7.961 16.0007 8.115 16M7.5 4V16M8.116 17C7.65534 17 7.271 16.846 6.963 16.538C6.655 16.23 6.50067 15.8457 6.5 15.385V4.615C6.5 4.155 6.65434 3.77067 6.963 3.462C7.27167 3.15334 7.656 2.99934 8.116 3H18.885C19.345 3 19.7293 3.154 20.038 3.462C20.3467 3.77 20.5007 4.15434 20.5 4.615V15.385C20.5 15.845 20.346 16.229 20.038 16.537C19.73 16.845 19.3453 16.9993 18.884 17H8.116ZM5.115 20C4.655 20 4.27067 19.846 3.962 19.538C3.65334 19.23 3.49934 18.8457 3.5 18.385V7.14834C3.5 6.85378 3.73878 6.615 4.03334 6.615V6.615C4.29107 6.615 4.5 6.82394 4.5 7.08167V18.385C4.5 18.5383 4.564 18.6793 4.692 18.808C4.82 18.9367 4.961 19.0007 5.115 19H16.385C16.6611 19 16.885 19.2239 16.885 19.5V19.5C16.885 19.7761 16.6611 20 16.385 20H5.115Z" stroke="#1A1C1E" stroke-opacity="0.6" stroke-width="0.5"/>
<path d="M15.375 8.33333H15.0625V7.66667C15.0625 6.74667 14.3625 6 13.5 6C12.6375 6 11.9375 6.74667 11.9375 7.66667V8.33333H11.625C11.2812 8.33333 11 8.63333 11 9V12.3333C11 12.7 11.2812 13 11.625 13H15.375C15.7188 13 16 12.7 16 12.3333V9C16 8.63333 15.7188 8.33333 15.375 8.33333ZM13.5 11.3333C13.1562 11.3333 12.875 11.0333 12.875 10.6667C12.875 10.3 13.1562 10 13.5 10C13.8438 10 14.125 10.3 14.125 10.6667C14.125 11.0333 13.8438 11.3333 13.5 11.3333ZM12.5625 8.33333V7.66667C12.5625 7.11333 12.9813 6.66667 13.5 6.66667C14.0187 6.66667 14.4375 7.11333 14.4375 7.66667V8.33333H12.5625Z" fill="#1A1C1E" fill-opacity="0.6"/>
</svg>
