<svg width="18" height="18" viewBox="0 0 18 18" fill="none" xmlns="http://www.w3.org/2000/svg">
<path d="M8.41634 1.10175C8.45851 0.945721 8.56082 0.812773 8.70084 0.732039C8.84086 0.651304 9.00718 0.629368 9.16334 0.671036L16.9033 2.74361C17.0598 2.78523 17.1934 2.8873 17.2747 3.02739C17.3559 3.16747 17.3782 3.33409 17.3366 3.49061L14.3666 14.5709C14.3245 14.7272 14.222 14.8604 14.0816 14.9412C13.9413 15.0219 13.7747 15.0437 13.6183 15.0016L5.87834 12.929C5.72207 12.8871 5.58882 12.7849 5.50782 12.6449C5.42683 12.5048 5.40472 12.3384 5.44634 12.182L8.41634 1.10175Z" stroke="#1A1C1E" stroke-opacity="0.6" stroke-width="1.5" stroke-linecap="round" stroke-linejoin="round"/>
<path d="M7.85285 3.25879L1.09514 5.07036C0.938871 5.11226 0.805614 5.21445 0.724621 5.3545C0.643627 5.49455 0.621514 5.66102 0.663137 5.81736L3.63057 16.8976C3.67273 17.054 3.77523 17.1871 3.91555 17.2679C4.05586 17.3487 4.22251 17.3704 4.37885 17.3284L8.24885 16.2921" stroke="#1A1C1E" stroke-opacity="0.6" stroke-width="1.5" stroke-linecap="round" stroke-linejoin="round"/>
</svg>
