<svg width="16" height="16" viewBox="0 0 16 16" fill="none" xmlns="http://www.w3.org/2000/svg">
<path d="M5.58277 11.2019C5.76264 11.3297 5.97763 11.3985 6.19821 11.3991C6.4188 11.3997 6.63415 11.3319 6.81467 11.2051C6.97626 11.0899 7.10345 10.9323 7.18104 10.7495L7.6754 9.24171C7.7963 8.8783 8.00023 8.54807 8.271 8.27725C8.54177 8.00642 8.87193 7.80245 9.23527 7.68152L10.6876 7.20827C10.896 7.13476 11.0764 6.99839 11.2041 6.81798C11.3317 6.63756 11.4003 6.42198 11.4003 6.20095C11.4003 5.97992 11.3317 5.76434 11.2041 5.58392C11.0764 5.4035 10.896 5.26714 10.6876 5.19363L9.20767 4.71637C8.84552 4.59511 8.51638 4.39156 8.24608 4.1217C7.97579 3.85184 7.77169 3.523 7.6498 3.16099L7.17824 1.70921C7.10491 1.50068 6.96847 1.32017 6.78787 1.19275C6.60661 1.06724 6.39139 1 6.17092 1C5.95046 1 5.73524 1.06724 5.55398 1.19275C5.37019 1.32292 5.23207 1.50769 5.15921 1.72081L4.68205 3.18779C4.56083 3.54058 4.36123 3.86131 4.09826 4.12585C3.83529 4.3904 3.51579 4.59189 3.16377 4.71517L1.71309 5.18643C1.50358 5.26025 1.3223 5.39757 1.19449 5.57929C1.06668 5.761 0.998699 5.97805 1.00002 6.20022C1.00134 6.42239 1.07189 6.63862 1.20185 6.8188C1.33182 6.99898 1.51472 7.13415 1.72509 7.20547L3.15977 7.67152C3.52324 7.79358 3.8534 7.9984 4.12423 8.26984C4.39506 8.54128 4.59916 8.87192 4.72044 9.23571L5.19241 10.6851C5.2656 10.8935 5.40199 11.0743 5.58237 11.2019M6.26392 10.353L6.23912 10.3854C6.22709 10.3929 6.21312 10.3967 6.19896 10.3963C6.1848 10.3958 6.17108 10.3912 6.15952 10.383C6.15137 10.3775 6.14431 10.3704 6.13873 10.3622L5.67077 8.92207C5.50244 8.40918 5.2158 7.94309 4.83403 7.56151C4.45148 7.17947 3.98519 6.89183 3.47215 6.72141L2.04467 6.25976C2.03152 6.25432 2.02006 6.24549 2.01147 6.23415C2.00311 6.22253 1.99888 6.20845 1.99947 6.19415C1.99974 6.17948 2.004 6.16614 2.01227 6.15414C2.01789 6.14613 2.02494 6.13921 2.03307 6.13374L3.48095 5.66368C3.9856 5.48884 4.44325 5.20015 4.81844 4.81998C5.1834 4.44876 5.46045 4.00036 5.62917 3.50783L6.10433 2.04325C6.10903 2.02977 6.11786 2.0181 6.12956 2.00992C6.14126 2.00173 6.15525 1.99744 6.16952 1.99765C6.18177 1.99764 6.19382 2.00076 6.20453 2.00671C6.21524 2.01266 6.22425 2.02124 6.23072 2.03165L6.69948 3.47182C6.87017 3.98184 7.15671 4.44535 7.53661 4.82598C7.91859 5.20776 8.38417 5.49539 8.8965 5.66609L10.3364 6.13334L10.3628 6.14094C10.3737 6.14677 10.3828 6.15548 10.3892 6.16613C10.3955 6.17678 10.3988 6.18895 10.3988 6.20135C10.3988 6.21602 10.3948 6.22935 10.3868 6.24135C10.381 6.24876 10.3745 6.25548 10.3672 6.26136L8.9233 6.72981C8.41158 6.8995 7.94658 7.18644 7.56541 7.56776C7.18424 7.94908 6.89744 8.41422 6.72788 8.92607L6.26392 10.353ZM11.7491 14.8552C11.8805 14.9483 12.0375 14.9985 12.1986 14.9988L12.2006 15C12.3637 14.9997 12.5225 14.9482 12.6548 14.8529C12.7871 14.7576 12.8862 14.6233 12.9382 14.4687L13.1657 13.7687C13.2124 13.6289 13.2908 13.5019 13.3949 13.3977C13.4989 13.2934 13.6257 13.2147 13.7653 13.1678L14.4812 12.935C14.5946 12.8948 14.6972 12.829 14.7809 12.7425C14.8645 12.6561 14.927 12.5515 14.9634 12.4368C14.9999 12.3221 15.0092 12.2006 14.9908 12.0817C14.9724 11.9628 14.9266 11.8498 14.8572 11.7516C14.7584 11.6133 14.6173 11.5108 14.4552 11.4596L13.7525 11.2319C13.6129 11.1851 13.4861 11.1066 13.382 11.0025C13.2779 10.8983 13.1993 10.7715 13.1525 10.6319L12.9198 9.91619C12.8661 9.76312 12.7659 9.63067 12.6332 9.53739C12.5005 9.44411 12.3419 9.39467 12.1797 9.39599C12.0176 9.39732 11.8598 9.44933 11.7287 9.54476C11.5975 9.6402 11.4995 9.77426 11.4483 9.92819L11.2195 10.6311C11.1741 10.7686 11.0979 10.894 10.9967 10.9976C10.8955 11.1013 10.772 11.1805 10.6356 11.2291L9.91961 11.462C9.76665 11.5156 9.63429 11.6158 9.54105 11.7484C9.44782 11.881 9.39838 12.0395 9.39966 12.2016C9.40093 12.3637 9.45287 12.5214 9.54818 12.6525C9.64349 12.7837 9.77742 12.8817 9.93121 12.933L10.632 13.161C10.7719 13.2078 10.8991 13.2866 11.0032 13.3912C11.1074 13.4958 11.1857 13.6232 11.2319 13.7635L11.4647 14.4787C11.5183 14.6308 11.6179 14.7624 11.7491 14.8552ZM10.9435 12.2141L10.8963 12.1985L10.9523 12.1789C11.2368 12.0806 11.4946 11.9178 11.7058 11.7033C11.9169 11.4888 12.0756 11.2283 12.1694 10.9423L12.1854 10.8939L12.2014 10.9451C12.2971 11.2332 12.4587 11.495 12.6734 11.7095C12.8881 11.9241 13.15 12.0855 13.4381 12.1809L13.5005 12.2009L13.4521 12.2169C13.1636 12.3124 12.9015 12.4742 12.6867 12.6892C12.4719 12.9041 12.3104 13.1664 12.215 13.455L12.199 13.5034L12.183 13.4542C12.0877 13.1649 11.9258 12.9021 11.7105 12.6867C11.4952 12.4713 11.2323 12.3094 10.9431 12.2141" fill="#2290AC"/>
</svg>
