<svg width="24" height="24" viewBox="0 0 24 24" fill="none" xmlns="http://www.w3.org/2000/svg">
<path d="M14.1055 20.0001V13.263C14.1055 13.0397 14.0168 12.8255 13.8589 12.6676C13.7009 12.5096 13.4867 12.4209 13.2634 12.4209H9.89486C9.67152 12.4209 9.45732 12.5096 9.29939 12.6676C9.14146 12.8255 9.05273 13.0397 9.05273 13.263V20.0001" stroke="#1A1C1E" stroke-opacity="0.6" stroke-width="1.5" stroke-linecap="round" stroke-linejoin="round"/>
<path d="M4 10.7366C3.99994 10.4916 4.05334 10.2495 4.15646 10.0273C4.25958 9.80503 4.40995 9.60797 4.59707 9.44982L10.492 4.39789C10.796 4.14096 11.1811 4 11.5792 4C11.9772 4 12.3623 4.14096 12.6663 4.39789L18.5612 9.44982C18.7484 9.60797 18.8987 9.80503 19.0019 10.0273C19.105 10.2495 19.1584 10.4916 19.1583 10.7366V18.3157C19.1583 18.7624 18.9809 19.1908 18.665 19.5067C18.3491 19.8226 17.9207 20 17.4741 20H5.68426C5.23756 20 4.80917 19.8226 4.49331 19.5067C4.17745 19.1908 4 18.7624 4 18.3157V10.7366Z" stroke="#1A1C1E" stroke-opacity="0.6" stroke-width="1.5" stroke-linecap="round" stroke-linejoin="round"/>
</svg>
