<svg width="17" height="18" viewBox="0 0 17 18" fill="none" xmlns="http://www.w3.org/2000/svg">
<path d="M10.6 11.3741V12.4989C10.6 14.6205 10.6 15.6805 9.8968 16.3397C9.1944 16.9989 8.0624 16.9989 5.8 16.9989C3.5376 16.9989 2.4056 16.9989 1.7032 16.3397C1 15.6813 1 14.6197 1 12.4997V8.64214C1 6.52054 1 5.45974 1.7032 4.80054C2.1688 4.36454 2.7816 4.24374 3.4 4.21094M5.8 14.5989H5.8072" stroke="#1A1C1E" stroke-opacity="0.6" stroke-width="1.5" stroke-linecap="round" stroke-linejoin="round"/>
<path d="M10.6009 2.2C8.91525 1.2544 7.90085 1.072 6.60085 1C6.08325 1.0936 5.92005 1.2808 5.80085 1.8V6.6C5.79685 7.3312 5.95925 7.6048 6.60085 7.8C8.34245 8.0784 9.17685 8.3304 10.5025 8.9536C10.5649 8.9832 10.6385 8.984 10.7017 8.9568C11.9809 8.408 12.8073 8.1008 13.7561 7.9224C14.3137 7.8184 15.0065 7.8104 15.2825 7.316C15.3801 7.1424 15.4129 6.9176 15.4009 6.6V1.8C15.2377 1.2848 15.0625 1.1112 14.6009 1C13.1961 1.0776 12.3465 1.276 10.6009 2.2ZM10.6009 2.2V8.6" stroke="#1A1C1E" stroke-opacity="0.6" stroke-width="1.5" stroke-linecap="round" stroke-linejoin="round"/>
</svg>
