<svg width="714" height="540" viewBox="0 0 714 540" fill="none" xmlns="http://www.w3.org/2000/svg">
<path d="M112.378 138.744C97.6762 125.098 74.5409 125.881 60.8068 140.488C47.0728 155.096 47.8609 178.081 62.5628 191.727C77.2656 205.372 100.4 204.589 114.134 189.982C127.868 175.374 127.081 152.389 112.378 138.744ZM100.219 177.067C93.6523 184.051 82.5905 184.425 75.5611 177.901C68.5317 171.377 68.1545 160.386 74.7215 153.402C81.2886 146.418 92.3503 146.044 99.3797 152.569C106.409 159.093 106.786 170.083 100.219 177.067Z" fill="#F0F8F1"/>
<path d="M60.8068 140.488C74.5409 125.881 97.6752 125.099 112.378 138.743L99.3797 152.569C92.3503 146.045 81.2886 146.419 74.7215 153.402C68.1545 160.386 68.5317 171.377 75.5611 177.9L62.5628 191.726C47.8609 178.081 47.0728 155.097 60.8068 140.488Z" fill="#F0F8F1"/>
<path d="M110.887 132.821C128.898 149.537 131.054 176.71 114.23 194.604L95.959 178.784C104.003 170.227 105.751 158.805 97.1402 150.811L110.887 132.821Z" fill="#F0F8F1"/>
<path d="M617.824 256.962H614V258.064H617.824V256.962Z" fill="#F0F8F1"/>
<path d="M627.54 262.848H622.65V263.949H627.54V262.848Z" fill="#F0F8F1"/>
<path d="M644.562 262.848H639.672V263.949H644.562V262.848Z" fill="#F0F8F1"/>
<path d="M661.581 262.848H656.691V263.949H661.581V262.848Z" fill="#F0F8F1"/>
<path d="M678.603 262.848H673.713V263.949H678.603V262.848Z" fill="#F0F8F1"/>
<path d="M695.626 262.848H690.736V263.949H695.626V262.848Z" fill="#F0F8F1"/>
<path d="M712.648 262.848H707.758V263.949H712.648V262.848Z" fill="#F0F8F1"/>
<path d="M617.824 242.251H614V243.352H617.824V242.251Z" fill="#F0F8F1"/>
<path d="M617.824 214.573H614V215.674H617.824V214.573Z" fill="#F0F8F1"/>
<path d="M617.824 200.656H614V201.757H617.824V200.656Z" fill="#F0F8F1"/>
<path d="M618.017 228.41H614.193V229.511H618.017V228.41Z" fill="#F0F8F1"/>
<path d="M712.509 258.063C712.509 258.071 712.37 258.08 712.099 258.088C711.806 258.094 711.407 258.102 710.896 258.112C709.814 258.123 708.259 258.139 706.269 258.158C702.228 258.177 696.421 258.203 689.254 258.236C674.867 258.255 655.03 258.279 633.119 258.307C628.563 258.306 624.095 258.304 619.817 258.303H619.576V258.063C619.609 239.306 619.638 222.8 619.659 210.954C619.689 205.061 619.714 200.328 619.731 197.043C619.748 195.432 619.762 194.176 619.772 193.299C619.781 192.889 619.789 192.568 619.793 192.33C619.801 192.112 619.808 192 619.816 192C619.823 192 619.831 192.112 619.838 192.33C619.844 192.569 619.85 192.89 619.86 193.299C619.869 194.176 619.883 195.432 619.901 197.043C619.918 200.329 619.943 205.061 619.973 210.954C619.994 222.8 620.023 239.307 620.055 258.063L619.815 257.822C624.093 257.821 628.561 257.82 633.117 257.819C655.027 257.847 674.865 257.872 689.253 257.89C696.419 257.922 702.226 257.949 706.267 257.967C708.257 257.987 709.811 258.002 710.894 258.013C711.405 258.023 711.804 258.032 712.097 258.038C712.37 258.046 712.509 258.054 712.509 258.063Z" fill="#F0F8F1"/>
<path d="M713.587 228.955C713.587 229.09 693.422 229.198 668.553 229.198C643.676 229.198 623.516 229.089 623.516 228.955C623.516 228.82 643.676 228.712 668.553 228.712C693.422 228.711 713.587 228.82 713.587 228.955Z" fill="#F0F8F1"/>
<path d="M713.587 215.117C713.587 215.252 693.422 215.36 668.553 215.36C643.676 215.36 623.516 215.251 623.516 215.117C623.516 214.983 643.676 214.874 668.553 214.874C693.422 214.874 713.587 214.982 713.587 215.117Z" fill="#F0F8F1"/>
<path d="M713.587 201.209C713.587 201.344 693.422 201.454 668.553 201.454C643.676 201.454 623.516 201.344 623.516 201.209C623.516 201.075 643.676 200.966 668.553 200.966C693.422 200.966 713.587 201.076 713.587 201.209Z" fill="#F0F8F1"/>
<path d="M713.587 242.796C713.587 242.931 693.422 243.04 668.553 243.04C643.676 243.04 623.516 242.93 623.516 242.796C623.516 242.663 643.676 242.553 668.553 242.553C693.422 242.552 713.587 242.662 713.587 242.796Z" fill="#F0F8F1"/>
<path d="M624.443 255.081C624.443 252.763 624.443 242.799 624.443 242.799L632.101 230.916L637.298 234.902L647.963 218.341L654.254 222.769L663.006 207.492L670.117 213.282L680.784 193.016L692.27 215.667L701.569 204.334L712.509 201.205V255.082H624.443V255.081Z" fill="#68C184" fill-opacity="0.2"/>
<path d="M713.586 196.851C713.586 196.857 713.52 196.863 713.393 196.87C713.243 196.874 713.058 196.88 712.823 196.887C712.292 196.896 711.553 196.907 710.603 196.923C708.632 196.938 705.794 196.959 702.209 196.987L702.315 196.934C699.87 200.137 696.83 204.118 693.333 208.695L693.276 208.77H693.18C686.64 208.782 678.982 208.796 670.658 208.811L670.858 208.698C667.895 213.632 664.697 218.954 661.391 224.456C658.165 229.814 655.042 235.001 652.093 239.9L651.911 240.204L651.703 239.918C647.258 233.802 643.146 228.144 639.511 223.144L639.839 223.133C635.203 230.336 631.376 236.282 628.691 240.453C627.357 242.501 626.308 244.112 625.576 245.236C625.224 245.765 624.949 246.18 624.747 246.483C624.557 246.762 624.445 246.898 624.445 246.898C624.445 246.898 624.522 246.741 624.695 246.45C624.885 246.138 625.145 245.715 625.476 245.172C626.187 244.033 627.206 242.403 628.5 240.33C631.15 236.137 634.928 230.16 639.505 222.919L639.66 222.673L639.833 222.909C643.486 227.896 647.616 233.539 652.084 239.64L651.692 239.658C654.637 234.756 657.755 229.566 660.976 224.205C664.287 218.705 667.489 213.386 670.459 208.456L670.527 208.342H670.66C678.984 208.357 686.642 208.371 693.182 208.383L693.029 208.458C696.561 203.907 699.633 199.95 702.103 196.766L702.144 196.712H702.211C705.797 196.74 708.634 196.761 710.605 196.776C711.554 196.791 712.294 196.803 712.825 196.811C713.06 196.818 713.246 196.824 713.395 196.829C713.52 196.838 713.586 196.844 713.586 196.851Z" fill="#2290AC" fill-opacity="0.4"/>
<path d="M643.363 226.955C643.363 227.414 642.976 227.786 642.499 227.786C642.021 227.786 641.635 227.414 641.635 226.955C641.635 226.495 642.021 226.123 642.499 226.123C642.976 226.123 643.363 226.495 643.363 226.955Z" fill="#2290AC" fill-opacity="0.4"/>
<path d="M669.341 212.202C669.341 212.661 668.955 213.033 668.477 213.033C668 213.033 667.613 212.661 667.613 212.202C667.613 211.742 668 211.37 668.477 211.37C668.955 211.37 669.341 211.742 669.341 212.202Z" fill="#2290AC" fill-opacity="0.4"/>
<path d="M689.536 208.574C689.536 209.034 689.15 209.406 688.673 209.406C688.195 209.406 687.809 209.034 687.809 208.574C687.809 208.115 688.195 207.742 688.673 207.742C689.149 207.742 689.536 208.115 689.536 208.574Z" fill="#2290AC" fill-opacity="0.4"/>
<path d="M107.94 498.25C107.94 498.25 37.9421 413.981 72.1516 327.227C94.4501 270.679 178.095 239.693 225.3 270.679C245.406 283.876 309.909 271.124 344.35 216.486C411.276 110.312 644.853 174.793 602.329 337.807C581.751 416.694 664.958 419.561 622.561 498.417L107.94 498.25Z" fill="#F0F8F1"/>
<path d="M302.064 497.644L302.208 497.641C303.379 497.619 304.284 496.662 304.174 495.562L296.358 417.547L289.537 418.156L300.761 496.589C300.848 497.202 301.409 497.656 302.064 497.644Z" fill="#2290AC"/>
<path d="M226.8 497.644L226.657 497.641C225.485 497.619 224.58 496.662 224.691 495.562L232.507 417.547L239.328 418.156L228.104 496.589C228.016 497.202 227.456 497.656 226.8 497.644Z" fill="#2290AC"/>
<path d="M357.207 497.644L357.35 497.641C358.522 497.619 359.427 496.662 359.316 495.562L351.5 417.547L344.68 418.156L355.903 496.589C355.991 497.202 356.552 497.656 357.207 497.644Z" fill="#2290AC"/>
<path d="M229.128 406.2L215.254 337.726C213.473 328.455 221.16 319.977 231.141 320.205L257.898 320.816C267.129 321.027 275.155 327.201 277.72 336.065L298.019 406.2H229.128Z" fill="#2290AC"/>
<path d="M237.522 406.2L223.648 337.726C221.867 328.455 229.554 319.977 239.535 320.205L266.293 320.816C275.524 321.027 283.549 327.201 286.115 336.065L306.414 406.2H237.522Z" fill="#2290AC"/>
<path d="M232.996 418.689H338.86C340.987 418.689 342.727 416.95 342.727 414.825V410.066C342.727 407.94 340.987 406.201 338.86 406.201H229.129V414.825C229.129 416.95 230.869 418.689 232.996 418.689Z" fill="#2290AC"/>
<path d="M282.674 418.689H350.16C351.873 418.689 353.275 417.289 353.275 415.576V409.314C353.275 407.602 351.873 406.201 350.16 406.201H282.674C280.961 406.201 279.559 407.602 279.559 409.314V415.576C279.559 417.289 280.96 418.689 282.674 418.689Z" fill="#2290AC"/>
<path d="M321.352 391.876C315.624 401.838 308.421 405.683 308.421 405.683H278.453C278.453 405.683 325.721 384.276 321.352 391.876Z" fill="#233862"/>
<path d="M358.313 490.848C357.989 493.991 362.363 494.802 367.435 495.109C372.507 495.416 370.962 496.439 377.903 497.772C384.844 499.105 387.652 497.233 388.165 496.299C388.622 495.471 385.403 494.134 381.973 492.624C381.541 492.435 381.109 492.241 380.677 492.047C376.817 490.301 374.678 486.802 371.689 483.547C368.858 480.464 366.244 470.661 366.244 470.661L356.814 468.542C356.814 468.542 359.374 477.367 360.255 481.132C360.773 483.347 359.947 485.808 359.217 487.68C358.824 488.698 358.426 489.741 358.313 490.848Z" fill="#FFB27D"/>
<path d="M367.435 495.109C372.507 495.416 370.962 496.439 377.904 497.772C384.845 499.105 387.652 497.233 388.165 496.299C388.623 495.471 385.403 494.133 381.973 492.624L381.919 492.682C381.919 492.682 377.011 494.289 371.383 492.695C366.796 491.397 362.377 488.602 359.217 487.68C358.824 488.698 358.427 489.741 358.314 490.848C357.99 493.991 362.363 494.802 367.435 495.109Z" fill="#262524"/>
<path d="M344.029 381.674C338.956 378.113 305.394 371.766 288.266 369.93L269.336 353.507C269.336 353.507 253.222 377.359 253.094 395.606C253.035 404.114 256.956 404.96 256.957 404.961C256.957 404.961 317.643 405.411 320.303 405.686C324.658 406.134 330.401 416.975 331.837 426.849C333.272 436.723 358.578 476.881 358.578 476.881C358.578 476.881 363.855 478.571 366.296 478.428C368.921 478.274 370.136 477.396 370.136 477.396C370.136 477.396 355.472 389.704 344.029 381.674Z" fill="#233862"/>
<path d="M342.616 490.848C342.292 493.991 346.666 494.802 351.738 495.109C356.81 495.416 355.265 496.439 362.206 497.772C369.147 499.105 371.954 497.233 372.468 496.299C372.925 495.471 369.706 494.134 366.276 492.624C365.844 492.435 365.412 492.241 364.98 492.047C361.12 490.301 358.981 486.802 355.992 483.547C353.161 480.464 350.546 470.661 350.546 470.661L341.117 468.542C341.117 468.542 343.677 477.367 344.557 481.132C345.076 483.347 344.25 485.808 343.52 487.68C343.126 488.698 342.729 489.741 342.616 490.848Z" fill="#FFB27D"/>
<path d="M351.738 495.109C356.81 495.416 355.265 496.439 362.206 497.772C369.147 499.105 371.954 497.233 372.468 496.299C372.925 495.471 369.706 494.133 366.276 492.624L366.221 492.682C366.221 492.682 361.314 494.289 355.686 492.695C351.099 491.397 346.68 488.602 343.52 487.68C343.126 488.698 342.729 489.741 342.617 490.848C342.292 493.991 346.666 494.802 351.738 495.109Z" fill="#233862"/>
<path d="M328.193 381.674C323.785 378.581 310.528 376.183 295.894 374.403C291.848 373.911 288.526 370.971 287.538 367.019L253.5 353.507C253.5 353.507 237.386 377.359 237.258 395.606C237.199 404.114 241.12 404.96 241.121 404.961C241.121 404.961 301.807 405.411 304.467 405.686C308.822 406.134 314.565 416.975 316.001 426.849C317.436 436.723 342.742 476.881 342.742 476.881C342.742 476.881 348.019 478.571 350.46 478.428C353.085 478.274 354.3 477.396 354.3 477.396C354.3 477.396 339.635 389.704 328.193 381.674Z" fill="#2B478B"/>
<path d="M282.645 254.405C277.967 251.951 270.85 251.619 269.694 251.463C255.857 249.605 247.53 269.698 247.04 275.787C246.137 287.009 240.197 288.72 231.835 295.748C215.07 309.841 219.986 326.216 229.154 332.301C234.654 335.952 244.349 332.3 244.349 332.3C244.486 332.396 270.864 317.563 283.867 310.408C303.359 307.639 294.564 260.661 282.645 254.405Z" fill="#233862"/>
<path d="M279.759 303.496C279.819 303.527 273.611 306.349 269.129 304.87C264.913 303.481 261.199 297.137 261.259 297.128C263.089 296.863 264.949 295.059 265.468 284.367L266.278 284.571L279.904 288.013C279.904 288.013 279.365 292.327 279.143 296.406C278.955 299.83 278.993 303.09 279.759 303.496Z" fill="#FFB27D"/>
<path d="M279.904 288.013C279.904 288.013 279.904 288.901 279.395 292.914C271.689 290.972 268.291 288.418 265.895 285.495L279.904 288.013Z" fill="#ED975D"/>
<path d="M282.811 288.556C282.811 288.556 264.793 291.488 263.139 280.246C261.485 269.004 258.045 261.811 269.48 259.464C280.914 257.117 283.785 261.077 285.251 264.696C286.716 268.314 287.456 287.504 282.811 288.556Z" fill="#FFB27D"/>
<path d="M282.828 258.992C282.828 258.992 274.645 271.901 267.341 274.958C260.036 278.015 256.447 276.463 256.447 276.463C256.447 276.463 259.77 271.427 260.636 264.666C260.891 262.673 262.191 260.964 264.057 260.217C269.299 258.119 279.439 254.81 282.828 258.992Z" fill="#233862"/>
<path d="M275.641 260.24C275.641 260.24 280.437 262.697 282.412 265C284.318 267.223 286.519 273.253 286.362 275.961C286.362 275.961 288.728 262.983 283.8 258.521C278.575 253.791 275.641 260.24 275.641 260.24Z" fill="#233862"/>
<path d="M294.174 330.961C293.627 367.564 294.024 359.915 290.017 363.389C289.052 364.225 286.338 364.723 282.766 364.959C271.536 365.704 251.794 363.855 251.044 361.781C248.453 354.604 250.282 352.374 248.121 341.386C247.895 340.218 247.617 338.953 247.289 337.575C245.487 330.029 243.734 327.461 250.127 315.337C255.924 304.355 262.742 295.433 263.283 295.755C278.579 304.829 279.103 297.222 279.103 297.222C279.103 297.222 294.442 313.107 294.174 330.961Z" fill="white"/>
<path d="M279.104 297.222C279.104 297.222 294.758 299.874 296.606 306.646C298.454 313.418 309.33 353.231 309.33 353.231C309.33 353.231 301.329 354.668 297.633 350.974C293.936 347.28 284.771 316.702 284.771 316.702L279.104 297.222Z" fill="white"/>
<path d="M282.767 364.959C271.537 365.704 251.795 363.855 251.044 361.781C248.454 354.604 250.282 352.374 248.121 341.386L253.538 326.143C253.538 326.143 252.642 343.117 257.651 347.582C262.655 352.047 278.16 356.201 280.595 359.931C281.769 361.722 282.542 363.517 282.767 364.959Z" fill="#EBF3FF"/>
<path d="M269.898 357.819C269.898 357.819 280.978 355.354 282.766 356.337C284.554 357.319 288.923 360.898 289.47 362.143C290.017 363.388 285.49 361.198 284.017 360.803C283.064 360.548 280.553 361.42 279.311 361.833C274.082 363.575 270.878 362.679 270.878 362.679L269.898 357.819Z" fill="#FFB27D"/>
<path d="M263.283 295.754C263.283 295.754 247.602 296.67 242.452 303.849C235.202 313.954 220.821 357.02 229.063 362.764C238.345 369.232 271.307 364.456 271.307 364.456C271.307 364.456 272.404 359.332 270.878 356.853C269.351 354.375 244.55 350.371 243.405 349.227C242.261 348.083 257.714 326.919 257.714 323.487C257.714 320.055 263.283 295.754 263.283 295.754Z" fill="white"/>
<path d="M283.303 359.419C283.303 359.419 285.624 362.411 286.385 362.769C287.146 363.126 287.638 363.036 287.638 363.036L286.074 360.223L283.303 359.419Z" fill="#FFB27D"/>
<path d="M282.766 356.337L289.515 359.612C289.515 359.612 289.228 360.082 288.397 360.044C287.566 360.006 285.47 359.24 285.47 359.24L282.766 356.337Z" fill="#FFB27D"/>
<path d="M307.63 364.098H276.283C276.283 362.718 277.402 361.6 278.782 361.6H307.63V364.098Z" fill="#1A1C1E" fill-opacity="0.6"/>
<path d="M307.541 329.978H356.006L344.381 364.098H295.602L307.541 329.978Z" fill="#68C184"/>
<path d="M356.719 329.978L345.094 364.098H296.314L308.254 329.978H356.719Z" fill="#1A1C1E" fill-opacity="0.6"/>
<path d="M330.589 346.722C330.288 348.026 328.986 349.083 327.682 349.083C326.378 349.083 325.564 348.026 325.865 346.722C326.167 345.419 327.468 344.362 328.772 344.362C330.077 344.362 330.89 345.419 330.589 346.722Z" fill="white"/>
<path d="M265.447 371.774H477.836C478.73 371.774 479.454 371.051 479.454 370.158V365.714C479.454 364.822 478.73 364.098 477.836 364.098H265.447C264.554 364.098 263.83 364.822 263.83 365.714V370.158C263.83 371.051 264.554 371.774 265.447 371.774Z" fill="#182D4F"/>
<path d="M483.037 498.222L483.129 498.211C484.217 498.076 484.987 497.106 484.85 496.043L465.923 368.006L458.994 368.204L481.263 496.934C481.405 497.759 482.188 498.327 483.037 498.222Z" fill="#182D4F"/>
<path d="M258.336 498.222L258.245 498.211C257.157 498.076 256.386 497.106 256.524 496.043L275.45 368.006L282.379 368.204L260.111 496.934C259.968 497.759 259.185 498.327 258.336 498.222Z" fill="#182D4F"/>
<path d="M302.152 498.222L302.061 498.211C300.973 498.076 300.203 497.106 300.34 496.043L319.267 368.006L326.195 368.204L303.927 496.934C303.784 497.759 303.002 498.327 302.152 498.222Z" fill="#182D4F"/>
<path d="M651.756 499.272H63.5386C63.0963 499.272 62.7344 498.911 62.7344 498.469V497.812C62.7344 497.37 63.0963 497.008 63.5386 497.008H651.756C652.199 497.008 652.561 497.37 652.561 497.812V498.469C652.561 498.911 652.199 499.272 651.756 499.272Z" fill="#2E3552"/>
<path d="M413.809 498.116H451.366C453.172 495.913 452.507 487.784 452.233 485.129C452.177 484.595 452.138 484.283 452.138 484.283C452.138 484.283 439.313 474.031 437.551 481.881C437.498 482.128 437.433 482.368 437.361 482.606C435.142 489.948 425.187 493.285 419.438 494.214C415.701 494.82 414.32 496.762 413.809 498.116Z" fill="#233862"/>
<path d="M516.289 376.153C514.933 376.153 451.955 387.97 441.538 400.857C436.334 407.295 435.561 481.646 435.561 481.646C435.561 481.646 441.999 489.624 455.903 484.992C455.903 484.992 466.098 434.122 465.345 418.693C465.137 414.426 508.375 418.075 516.288 416.028C524.202 413.981 543.538 396.776 539.277 388.395C535.017 380.013 516.289 376.153 516.289 376.153Z" fill="#233862"/>
<path d="M441.809 357.946C441.809 357.946 429.106 358.118 426.102 359.405C423.097 360.691 417.003 363.645 418.634 364.098C420.265 364.552 428.047 363.911 429.728 364.169C431.41 364.426 433.484 364.098 434.514 364.098C435.543 364.098 440.348 364.098 440.348 364.098L441.809 357.946Z" fill="#FFB27D"/>
<path d="M426.957 327.478C426.957 327.478 422.626 324.385 418.42 323.784C416.021 323.442 413.689 323.015 412.279 322.518C408.398 321.152 400.633 314.174 401.221 313.355C403.104 310.732 412.17 316.283 413.752 315.688C415.334 315.092 410.71 311.806 412.319 310.65C413.159 310.047 415.124 313.072 416.73 313.376C418.902 313.787 420.602 316.853 421.255 317.013C422.529 317.325 428.106 321.47 428.106 321.47L426.957 327.478Z" fill="#FFB27D"/>
<path d="M510.016 291.357C510.016 291.357 500.346 294.352 490.819 320.573C481.291 346.794 477.673 348.209 474.21 349.238C470.746 350.268 440.348 356.316 440.348 356.316V364.097H487.187C487.187 364.097 504.751 347.4 510.016 336.159C515.282 324.919 510.016 291.357 510.016 291.357Z" fill="#CED3D6"/>
<path d="M397.211 498.116H434.768C436.574 495.913 435.909 487.784 435.635 485.129C435.579 484.595 435.54 484.283 435.54 484.283C435.54 484.283 422.715 474.031 420.954 481.881C420.9 482.128 420.835 482.368 420.764 482.606C418.544 489.948 408.589 493.285 402.841 494.214C399.103 494.82 397.722 496.762 397.211 498.116Z" fill="#262524"/>
<path d="M497.73 376.153C496.374 376.153 433.397 387.97 422.98 400.857C417.776 407.295 417.002 481.646 417.002 481.646C417.002 481.646 423.441 489.624 437.345 484.992C437.345 484.992 447.54 434.122 446.787 418.693C446.578 414.426 489.816 418.075 497.73 416.028C505.643 413.981 524.979 396.776 520.719 388.395C516.458 380.013 497.73 376.153 497.73 376.153Z" fill="#2B478B"/>
<path d="M501.672 299.667C506.202 299.293 510.952 298.087 515.058 296.755C520.19 295.091 524.326 292.659 521.661 287.971C519.204 283.65 515.228 273.999 515.497 266.004L505.947 273.695L499.46 278.919C499.46 278.919 499.487 281.998 500.196 287.396C500.326 288.379 500.477 289.442 500.656 290.577C500.8 291.493 500.379 292.409 499.589 292.898C499.54 292.929 499.492 292.959 499.443 292.99C496.219 295.014 497.877 299.98 501.672 299.667Z" fill="#FFB27D"/>
<path d="M499.461 277.647C499.461 277.647 499.129 278.766 499.7 282.895C505.483 281.952 510.889 277.342 510.889 277.342C507.945 276.534 506.874 273.355 504.681 273.651L499.461 277.647Z" fill="#ED975D"/>
<path d="M494.112 278.589C494.112 278.589 516.357 282.282 518.446 268.402C520.534 254.521 524.811 245.65 510.696 242.705C496.582 239.76 493.019 244.641 491.194 249.104C489.37 253.568 488.379 277.27 494.112 278.589Z" fill="#FFB27D"/>
<path d="M487.922 242.962C486.967 246.304 489.523 250.376 493.815 251.716C500.185 253.705 498.778 261.515 501.644 261.409C504.511 261.303 505.667 256.92 508.228 260.421C510.412 263.408 506.41 266.949 506.685 268.587C507.158 271.399 511.565 277.152 515.537 276.864C519.509 276.575 526.941 257.711 525.454 251.875C523.968 246.039 518.022 239.885 512.395 239.036C506.768 238.187 498.953 240.615 497.148 240.615C495.343 240.615 488.438 241.157 487.922 242.962Z" fill="#2B478B"/>
<path d="M539.575 310.621C536.359 297.688 527.473 284.117 521.464 284.129C511.225 284.148 496.506 286.849 490.563 301.5C486.186 312.291 480.348 374.364 486.946 378.779C502.03 388.871 536.993 409.472 543.203 388.463C548.894 369.213 545.155 333.068 539.575 310.621Z" fill="#CED3D6"/>
<path d="M514.707 297.752C511.786 290.158 502.365 287.533 495.94 292.528C492.465 295.23 488.209 299.078 483.069 304.548C463.961 324.884 460.078 324.757 456.489 324.337C452.9 323.917 422.581 317.486 422.581 317.486C422.581 317.486 421.028 318.631 420.114 320.481C418.894 322.952 419.508 324.637 419.508 324.637C418.321 323.869 430.256 332.091 436.197 335.37C444.042 339.699 455.864 343.758 460.572 345.3C461.907 345.737 463.346 345.715 464.667 345.239C471.656 342.721 495.126 333.548 514.231 317.63C519.265 313.436 517.415 304.793 514.707 297.752Z" fill="#CED3D6"/>
<path d="M522.495 284.254L520.177 279.035C520.177 279.035 499.427 280.726 495.939 292.528C495.939 292.528 512.024 284.507 522.495 284.254Z" fill="white"/>
<path d="M572.873 497.647L573.016 497.644C574.188 497.623 575.093 496.666 574.982 495.565L567.166 417.551L560.346 418.159L571.569 496.593C571.657 497.205 572.218 497.659 572.873 497.647Z" fill="#2290AC"/>
<path d="M532.641 497.647L532.784 497.644C533.955 497.623 534.86 496.666 534.75 495.565L526.934 417.551L520.113 418.159L531.337 496.593C531.424 497.205 531.985 497.659 532.641 497.647Z" fill="#2290AC"/>
<path d="M457.113 497.647L456.969 497.644C455.798 497.623 454.893 496.666 455.003 495.565L462.82 417.551L469.64 418.159L458.417 496.593C458.328 497.205 457.768 497.659 457.113 497.647Z" fill="#2290AC"/>
<path d="M570.665 406.5L578.083 341.341C579.056 331.951 575.912 322.757 562.354 322.046L538.501 320.594C524.364 320.011 517.981 331.77 516.191 340.822L502.031 412.448L570.665 406.5Z" fill="#2290AC"/>
<path d="M566.679 418.693H460.814C458.687 418.693 456.947 416.954 456.947 414.828V410.069C456.947 407.943 458.687 406.204 460.814 406.204H570.546V414.828C570.546 416.954 568.806 418.693 566.679 418.693Z" fill="#2290AC"/>
<path d="M567.541 418.692H505.033C503.381 418.692 502.029 417.341 502.029 415.69V409.204C502.029 407.553 503.381 406.203 505.033 406.203H570.544V415.69C570.544 417.341 569.193 418.692 567.541 418.692Z" fill="#2290AC"/>
<path d="M103.638 393.37C103.595 393.459 102.188 392.644 99.4266 391.77C96.6878 390.922 92.4617 390.101 87.3493 390.874C84.8136 391.28 82.0674 392.046 79.3838 393.433C76.6825 394.785 74.1085 396.792 71.5523 399.063C68.9839 401.328 66.4351 403.9 63.4942 406.278C60.5532 408.618 57.1789 410.832 53.2093 411.842C51.239 412.349 49.1761 412.481 47.2039 412.204C45.228 411.935 43.3616 411.289 41.6393 410.487C38.1901 408.862 35.2399 406.727 32.3186 404.947C29.4179 403.131 26.5013 401.691 23.5519 401.018C20.6203 400.305 17.7739 400.161 15.213 400.379C10.0594 400.829 6.15997 402.653 3.70201 404.125C1.23189 405.635 0.0674902 406.769 0.0010337 406.69C-0.0195585 406.667 0.267801 406.385 0.836893 405.867C1.39663 405.341 2.29051 404.632 3.51668 403.83C5.95124 402.248 9.8834 400.292 15.1531 399.75C17.7711 399.486 20.6971 399.594 23.7251 400.297C26.7708 400.956 29.8148 402.431 32.7482 404.242C35.7088 406.024 38.6591 408.13 42.0072 409.69C45.3206 411.285 49.2182 411.996 52.9894 410.975C56.7605 410.018 60.0525 407.883 62.9447 405.594C65.8389 403.27 68.3998 400.714 71.0056 398.445C73.6021 396.17 76.2491 394.137 79.0478 392.771C81.8249 391.373 84.6554 390.623 87.2566 390.249C92.502 389.539 96.7908 390.478 99.5333 391.44C100.919 391.919 101.949 392.408 102.627 392.77C103.305 393.138 103.652 393.344 103.638 393.37Z" fill="#F0F8F1"/>
<path d="M31.1162 413.438H19.9824V443.536H31.1162V413.438Z" fill="#F0F8F1"/>
<path d="M78.3604 413.438H67.2266V443.536H78.3604V413.438Z" fill="#F0F8F1"/>
<path d="M94.1084 395.767H82.9746V443.539H94.1084V395.767Z" fill="#F0F8F1"/>
<path d="M16.708 434.06H5.57422V444.189H16.708V434.06Z" fill="#F0F8F1"/>
<path d="M46.8643 427.024H35.7305V443.531H46.8643V427.024Z" fill="#F0F8F1"/>
<path d="M62.6123 423.242H51.4785V443.538H62.6123V423.242Z" fill="#F0F8F1"/>
<path d="M31.5637 447.087C31.5637 447.334 28.8708 447.534 25.5489 447.534C22.2261 447.534 19.5332 447.334 19.5332 447.087C19.5332 446.84 22.2261 446.64 25.5489 446.64C28.8708 446.64 31.5637 446.84 31.5637 447.087Z" fill="#B3BFC5"/>
<path d="M17.7102 447.087C17.7102 447.334 15.0164 447.534 11.6954 447.534C8.37258 447.534 5.67969 447.334 5.67969 447.087C5.67969 446.84 8.37258 446.64 11.6954 446.64C15.0164 446.64 17.7102 446.84 17.7102 447.087Z" fill="#B3BFC5"/>
<path d="M96.3004 447.087C96.3004 447.334 93.2556 447.534 89.5013 447.534C85.7451 447.534 82.7012 447.334 82.7012 447.087C82.7012 446.84 85.7441 446.64 89.5013 446.64C93.2556 446.64 96.3004 446.84 96.3004 447.087Z" fill="#B3BFC5"/>
<path d="M72.9622 447.534C76.7178 447.534 79.7623 447.334 79.7623 447.087C79.7623 446.84 76.7178 446.64 72.9622 446.64C69.2066 446.64 66.1621 446.84 66.1621 447.087C66.1621 447.334 69.2066 447.534 72.9622 447.534Z" fill="#B3BFC5"/>
<path d="M62.6116 447.087C62.6116 447.334 59.9178 447.535 56.5968 447.535C53.2749 447.535 50.582 447.335 50.582 447.087C50.582 446.84 53.2749 446.64 56.5968 446.64C59.9178 446.64 62.6116 446.84 62.6116 447.087Z" fill="#B3BFC5"/>
<path d="M46.341 447.087C46.341 447.334 43.6472 447.535 40.3263 447.535C37.0044 447.535 34.3105 447.335 34.3105 447.087C34.3105 446.84 37.0034 446.64 40.3263 446.64C43.6472 446.64 46.341 446.84 46.341 447.087Z" fill="#B3BFC5"/>
<path d="M228.141 0H208V80.4186H228.141V0Z" fill="#EDF4EE"/>
<path d="M257.762 17.5439H237.621V80.4206H257.762V17.5439Z" fill="#EDF4EE"/>
<path d="M287.834 31.9043H267.693V80.4171H287.834V31.9043Z" fill="#EDF4EE"/>
<path d="M315.676 51.6079H295.535V80.4173H315.676V51.6079Z" fill="#EDF4EE"/>
</svg>
