<svg width="110" height="109" viewBox="0 0 110 109" fill="none" xmlns="http://www.w3.org/2000/svg">
<path d="M55.0001 108.434C84.9432 108.434 109.217 84.16 109.217 54.2169C109.217 24.2737 84.9432 0 55.0001 0C25.0569 0 0.783203 24.2737 0.783203 54.2169C0.783203 84.16 25.0569 108.434 55.0001 108.434Z" fill="#FAFAFA"/>
<g filter="url(#filter0_d_703_62726)">
<mask id="mask0_703_62726" style="mask-type:alpha" maskUnits="userSpaceOnUse" x="0" y="0" width="110" height="109">
<path d="M55.0001 108.434C84.9432 108.434 109.217 84.16 109.217 54.2169C109.217 24.2737 84.9432 0 55.0001 0C25.0569 0 0.783203 24.2737 0.783203 54.2169C0.783203 84.16 25.0569 108.434 55.0001 108.434Z" fill="url(#paint0_linear_703_62726)"/>
</mask>
<g mask="url(#mask0_703_62726)">
<path d="M84.9043 41.9863C85.8047 41.6086 86.4449 40.6801 86.4502 39.5861C86.456 38.1529 85.3715 36.9859 84.0275 36.9799C82.6842 36.9736 81.5898 38.1305 81.5838 39.5637C81.5793 40.6678 82.224 41.6074 83.1344 41.9863C79.3898 42.5504 79.5598 46.6201 79.5598 46.6201L88.4142 46.6609C88.4142 46.6609 88.616 42.5468 84.9043 41.9863Z" fill="#C9C9C9"/>
<path d="M32.5888 26.7771L26.8025 24.7308L21.0725 26.7496C20.341 27.0898 19.6992 27.2935 19.6992 27.9646V31.3058C19.6992 33.6261 20.3166 35.9255 21.5867 37.9554C22.6556 39.6636 24.3107 41.4225 26.8586 42.5405C29.2007 41.7913 30.9492 39.794 32.0179 38.0858C33.2882 36.056 33.9054 33.7566 33.9054 31.4363V28.4314C33.9056 27.4746 33.3908 27.0072 32.5888 26.7771Z" fill="#C9C9C9"/>
<path d="M28.7258 32.167C28.7258 31.2822 28.0084 30.5648 27.1236 30.5648C26.2389 30.5648 25.5215 31.2822 25.5215 32.167C25.5215 32.8992 26.0156 33.5099 26.6865 33.7011V36.0964H27.5605V33.7011C28.2316 33.5099 28.7258 32.8992 28.7258 32.167Z" fill="#EBEBEB"/>
<path d="M81.7931 57.7441L82.7801 58.2783L82.3363 59.0207L81.3404 58.4322L81.3586 59.5277H80.5076L80.5166 58.423L79.5207 59.0207L79.0859 58.2783L80.0728 57.7441L79.0859 57.2009L79.5207 56.4586L80.5166 57.0562L80.5076 55.9515H81.3586L81.3404 57.0562L82.3363 56.4586L82.7801 57.2009L81.7931 57.7441Z" fill="#E0E0E0"/>
<path d="M85.9025 57.7441L86.8894 58.2783L86.4457 59.0207L85.4498 58.4322L85.468 59.5277H84.617L84.626 58.423L83.6301 59.0207L83.1953 58.2783L84.1822 57.7441L83.1953 57.2009L83.6301 56.4586L84.626 57.0562L84.617 55.9515H85.468L85.4498 57.0562L86.4457 56.4586L86.8894 57.2009L85.9025 57.7441Z" fill="#E0E0E0"/>
<path d="M90.0119 57.7441L90.9988 58.2783L90.5551 59.0207L89.5592 58.4322L89.5773 59.5277H88.7264L88.7353 58.423L87.7395 59.0207L87.3047 58.2783L88.2916 57.7441L87.3047 57.2009L87.7395 56.4586L88.7353 57.0562L88.7264 55.9515H89.5773L89.5592 57.0562L90.5551 56.4586L90.9988 57.2009L90.0119 57.7441Z" fill="#E0E0E0"/>
<path d="M73.9736 63.0725H39.0842C38.3766 63.0725 37.8027 62.4988 37.8027 61.7912V29.692C37.8027 28.9843 38.3764 28.4105 39.0842 28.4105H73.9736C74.6813 28.4105 75.2549 28.9842 75.2549 29.692V61.791C75.2551 62.4986 74.6813 63.0725 73.9736 63.0725Z" fill="white"/>
<path d="M73.9741 63.0762C73.9741 63.0762 74.0051 63.0729 74.0663 63.069C74.1272 63.0649 74.2184 63.0522 74.3344 63.0186C74.4491 62.9826 74.5897 62.9236 74.7327 62.8162C74.8745 62.7094 75.0217 62.5545 75.1208 62.3408C75.2315 62.1297 75.254 61.8629 75.2428 61.5713C75.242 61.2793 75.2413 60.96 75.2405 60.6143C75.2391 59.9225 75.2375 59.1245 75.2358 58.2262C75.2319 54.6313 75.2264 49.4319 75.2196 43.0073C75.2176 39.7945 75.2157 36.2755 75.2133 32.4978C75.2116 31.5543 75.2098 30.5945 75.2081 29.6195C75.1854 29.1465 74.859 28.7012 74.4063 28.5379C74.1823 28.4445 73.9368 28.4596 73.6854 28.459C73.4358 28.4592 73.185 28.4592 72.9337 28.4594C70.9214 28.46 68.8503 28.4607 66.7265 28.4615C58.231 28.4627 48.8914 28.4641 39.0881 28.4656C38.793 28.466 38.5014 28.5738 38.2797 28.767C38.0563 28.9578 37.9069 29.2316 37.868 29.5217C37.8479 29.6643 37.8559 29.8182 37.8541 29.9703V30.4262C37.8541 30.7299 37.8541 31.033 37.8541 31.3355C37.8541 32.5461 37.8539 33.7486 37.8539 34.9425C37.8537 37.3302 37.8534 39.6828 37.8532 41.9945C37.8522 46.6179 37.8512 51.0774 37.8502 55.3256C37.8495 57.4499 37.8489 59.5211 37.8481 61.5336C37.8491 61.6586 37.8448 61.7873 37.8536 61.9063C37.8668 62.0262 37.8912 62.1455 37.9379 62.2571C38.028 62.4809 38.1848 62.6752 38.3811 62.8121C38.5782 62.9481 38.8133 63.0256 39.0512 63.0309C39.2967 63.0315 39.5414 63.0322 39.785 63.0328C40.7612 63.0332 41.7219 63.0338 42.6664 63.0342C46.4443 63.0364 49.9635 63.0385 53.1763 63.0404C59.6009 63.0473 64.7999 63.0528 68.3944 63.0567C70.1901 63.0608 71.5846 63.0641 72.5319 63.0662C73.004 63.0684 73.3641 63.0701 73.6079 63.0713C73.8499 63.0727 73.9741 63.0762 73.9741 63.0762C73.9741 63.0762 73.8499 63.0797 73.6075 63.0815C73.3637 63.0826 73.0036 63.0842 72.5315 63.0865C71.5844 63.0887 70.1897 63.092 68.394 63.0961C64.7995 63.1 59.6005 63.1055 53.1759 63.1123C49.9631 63.1143 46.4439 63.1162 42.666 63.1186C41.7215 63.119 40.7608 63.1196 39.7846 63.1199C39.5403 63.1196 39.2948 63.119 39.0485 63.1186C38.794 63.1131 38.5414 63.0303 38.3303 62.8848C38.1198 62.7383 37.9516 62.5303 37.8549 62.2905C37.8051 62.1709 37.7784 62.043 37.7643 61.9143C37.7547 61.7828 37.7594 61.6604 37.7582 61.5338C37.7575 59.5213 37.7569 57.45 37.7561 55.3258C37.7551 51.0776 37.7541 46.6179 37.7532 41.9947C37.753 39.683 37.7526 37.3302 37.7524 34.9427C37.7524 33.749 37.7522 32.5463 37.7522 31.3357C37.7522 31.033 37.7522 30.7299 37.7522 30.4264V29.9705C37.7541 29.8191 37.7452 29.667 37.767 29.5076C37.8092 29.1936 37.9711 28.8969 38.2127 28.6904C38.4524 28.4814 38.7692 28.3643 39.0877 28.3643C48.891 28.3656 58.2308 28.367 66.7261 28.3682C68.8499 28.3689 70.921 28.3695 72.9333 28.3703C73.1848 28.3703 73.4354 28.3705 73.685 28.3705C73.9293 28.3713 74.1959 28.3553 74.4368 28.4557C74.9217 28.6312 75.2706 29.108 75.2946 29.6146C75.2956 30.5916 75.2963 31.5529 75.2973 32.4982C75.295 36.2759 75.293 39.7949 75.2911 43.0077C75.2842 49.4323 75.2788 54.6317 75.2749 58.2266C75.2731 59.1248 75.2715 59.9229 75.2702 60.6147C75.2692 60.9604 75.2684 61.2797 75.2678 61.5717C75.2774 61.861 75.2528 62.1379 75.1387 62.3502C75.0366 62.5666 74.886 62.7225 74.7415 62.8291C74.5957 62.9365 74.453 62.9944 74.3368 63.0291C74.2194 63.0613 74.1274 63.0723 74.0661 63.0746C74.0051 63.0764 73.9741 63.0762 73.9741 63.0762Z" fill="#262524"/>
<path d="M40.6289 30.8152C40.6289 31.1728 40.3391 31.4626 39.9814 31.4626C39.6238 31.4626 39.334 31.1728 39.334 30.8152C39.334 30.4576 39.6238 30.1677 39.9814 30.1677C40.3391 30.1677 40.6289 30.4576 40.6289 30.8152Z" fill="#262524"/>
<path d="M41.874 31.4626C42.2316 31.4626 42.5215 31.1728 42.5215 30.8152C42.5215 30.4576 42.2316 30.1677 41.874 30.1677C41.5164 30.1677 41.2266 30.4576 41.2266 30.8152C41.2266 31.1728 41.5164 31.4626 41.874 31.4626Z" fill="#262524"/>
<path d="M43.7646 31.4626C44.1222 31.4626 44.4121 31.1728 44.4121 30.8152C44.4121 30.4576 44.1222 30.1677 43.7646 30.1677C43.4071 30.1677 43.1172 30.4576 43.1172 30.8152C43.1172 31.1728 43.4071 31.4626 43.7646 31.4626Z" fill="#262524"/>
<path d="M75.2551 32.6477C75.2551 32.6758 66.8704 32.6985 56.5298 32.6985C46.1857 32.6985 37.8027 32.6756 37.8027 32.6477C37.8027 32.6198 46.1855 32.5969 56.5298 32.5969C66.8704 32.5969 75.2551 32.6198 75.2551 32.6477Z" fill="#262524"/>
<path d="M61.8189 45.7093C61.8189 45.7093 61.8338 45.6886 61.8636 45.6491C61.8713 45.6392 61.8797 45.6283 61.8888 45.6159C61.8974 45.6033 61.9051 45.588 61.9142 45.5722C61.9324 45.5404 61.9551 45.504 61.9713 45.4583C61.9801 45.4359 61.9908 45.4126 61.9998 45.387C62.007 45.3611 62.0144 45.3337 62.0224 45.3048C62.0316 45.2763 62.0365 45.2456 62.0414 45.2134C62.0455 45.1812 62.0543 45.148 62.0554 45.1126C62.0707 44.972 62.0613 44.8079 62.0332 44.6267C61.9771 44.2632 61.823 43.8353 61.5871 43.3703C61.3515 42.904 61.0273 42.4027 60.6289 41.88C60.2303 41.3572 59.751 40.8173 59.2002 40.2752C58.6486 39.7336 58.0242 39.1896 57.3244 38.674C56.9742 38.4166 56.6049 38.167 56.2156 37.932C55.8268 37.6963 55.4166 37.4765 54.984 37.2861C54.5514 37.098 54.0949 36.9342 53.6135 36.8564C53.3737 36.8195 53.1262 36.8015 52.8826 36.8385C52.7612 36.8572 52.642 36.8902 52.5295 36.9406C52.419 36.9945 52.3172 37.0664 52.2332 37.1572C52.1526 37.2509 52.0922 37.3601 52.051 37.4759C52.0137 37.5933 51.994 37.7156 51.9893 37.8384C51.9801 38.0845 52.026 38.3285 52.0901 38.5627C52.2219 39.0322 52.4367 39.4671 52.6727 39.8757C52.9112 40.2839 53.1762 40.6666 53.4545 41.0261C53.7324 41.3863 54.0225 41.7249 54.3182 42.0435C54.9102 42.6802 55.5217 43.2388 56.1225 43.7251C56.7238 44.2109 57.3148 44.6255 57.8797 44.962C58.4443 45.2984 58.9793 45.5634 59.4691 45.7445C59.958 45.9259 60.4008 46.0302 60.7682 46.0447C60.9514 46.0519 61.1154 46.0425 61.2533 46.0115C61.2883 46.0064 61.3203 45.9939 61.3517 45.9861C61.3832 45.9777 61.4133 45.9693 61.4404 45.9568C61.4679 45.9456 61.4943 45.9351 61.5193 45.9249C61.5435 45.913 61.5656 45.8999 61.5869 45.8886C61.6304 45.8673 61.6638 45.8407 61.6935 45.8191C61.7082 45.8081 61.7224 45.7988 61.7342 45.7888C61.7453 45.7782 61.7553 45.7685 61.7642 45.7599C61.8 45.7265 61.8189 45.7093 61.8189 45.7093C61.8189 45.7093 61.8015 45.7277 61.7662 45.7628C61.7574 45.7716 61.7474 45.7814 61.7365 45.7923C61.725 45.8025 61.7107 45.812 61.6963 45.8232C61.6668 45.8452 61.6334 45.8724 61.5898 45.8943C61.5685 45.906 61.5465 45.9193 61.5222 45.9314C61.4971 45.9417 61.4707 45.9527 61.4429 45.964C61.4156 45.9767 61.3855 45.9853 61.3539 45.9941C61.3222 46.0021 61.29 46.015 61.2549 46.0202C61.1162 46.0525 60.9514 46.0628 60.7674 46.0564C60.3982 46.0437 59.9539 45.9406 59.4633 45.7601C58.9717 45.5802 58.4352 45.3159 57.8689 44.9802C57.3025 44.6443 56.7102 44.23 56.1072 43.7445C55.5049 43.2583 54.8918 42.6997 54.2985 42.0624C54.0022 41.7435 53.7113 41.4044 53.4324 41.0437C53.1531 40.6834 52.8873 40.3 52.6479 39.8906C52.4108 39.4808 52.1949 39.0443 52.0619 38.5709C51.9975 38.3347 51.9508 38.0882 51.9602 37.8379C51.9649 37.7129 51.985 37.5879 52.0233 37.4674C52.0655 37.348 52.1278 37.2355 52.2112 37.1384C52.2981 37.0445 52.4032 36.9703 52.5168 36.9148C52.6323 36.8629 52.7541 36.8293 52.8778 36.8101C53.1254 36.7726 53.3754 36.791 53.6174 36.8283C54.1026 36.9066 54.5608 37.0715 54.9947 37.2603C55.4285 37.4515 55.8397 37.672 56.2293 37.9084C56.6193 38.1443 56.9893 38.3945 57.3396 38.6527C58.0402 39.1697 58.6648 39.7152 59.2164 40.2582C59.7674 40.8019 60.2465 41.3433 60.6447 41.8677C61.0428 42.3919 61.3664 42.8951 61.6012 43.3628C61.8363 43.8298 61.9892 44.2595 62.0439 44.6249C62.0713 44.807 62.0799 44.972 62.0637 45.1134C62.0625 45.149 62.0533 45.1824 62.049 45.2148C62.0439 45.2472 62.0387 45.2781 62.0293 45.3068C62.0211 45.3357 62.0133 45.363 62.0058 45.3892C61.9967 45.4146 61.9857 45.438 61.9765 45.4605C61.9597 45.5064 61.9367 45.5425 61.9179 45.5743C61.9084 45.5902 61.9006 45.6052 61.8918 45.6179C61.8822 45.63 61.8736 45.6409 61.8658 45.6507C61.8353 45.6898 61.8189 45.7093 61.8189 45.7093Z" fill="#FF725E"/>
<path d="M63.5913 41.4225C63.5913 41.4225 63.5886 41.3971 63.5847 41.3477C63.5837 41.3354 63.5827 41.3216 63.5814 41.3061C63.5792 41.2909 63.5749 41.2745 63.5712 41.2565C63.5634 41.2206 63.5564 41.1786 63.5378 41.1337C63.5294 41.111 63.5218 41.0866 63.5117 41.0616C63.4997 41.0374 63.487 41.012 63.474 40.9852C63.4619 40.9579 63.4451 40.9317 63.4273 40.9044C63.4089 40.8776 63.3935 40.847 63.3706 40.8198C63.2884 40.7048 63.1722 40.5886 63.0306 40.4722C62.7468 40.2384 62.347 40.0216 61.8613 39.8315C61.3751 39.6405 60.7996 39.4821 60.1543 39.3573C59.5087 39.2325 58.7918 39.1485 58.0197 39.1106C57.2476 39.0737 56.4195 39.0833 55.5541 39.1645C55.1215 39.2056 54.6797 39.2651 54.2326 39.3489C53.7855 39.4319 53.3332 39.5411 52.8836 39.6868C52.4355 39.8345 51.9859 40.0159 51.575 40.2784C51.3713 40.4104 51.1748 40.562 51.0178 40.7514C50.9397 40.8462 50.8727 40.9503 50.8223 41.0628C50.7758 41.1766 50.7477 41.2979 50.7455 41.4218C50.7477 41.5456 50.7754 41.6671 50.8219 41.7809C50.8723 41.8934 50.9389 41.9977 51.0172 42.0925C51.174 42.2823 51.3707 42.4337 51.5744 42.5659C51.9853 42.8286 52.4351 43.0102 52.8832 43.1579C53.3328 43.3038 53.7853 43.4128 54.2324 43.496C54.6795 43.5798 55.1215 43.6393 55.5541 43.6803C56.4197 43.7614 57.2478 43.7712 58.0199 43.734C58.792 43.6962 59.5091 43.6122 60.1546 43.4874C60.7998 43.3626 61.3755 43.2042 61.8615 43.0132C62.347 42.8231 62.747 42.6063 63.0306 42.3725C63.1722 42.2561 63.2882 42.1397 63.3704 42.0249C63.3933 41.9977 63.4087 41.9673 63.4271 41.9403C63.4449 41.913 63.4619 41.8868 63.4738 41.8594C63.487 41.8327 63.4995 41.8073 63.5115 41.7831C63.5216 41.7581 63.5292 41.7337 63.5376 41.711C63.556 41.6661 63.5632 41.6241 63.571 41.5882C63.5745 41.5702 63.579 41.5538 63.5812 41.5386C63.5824 41.5233 63.5835 41.5095 63.5845 41.497C63.5886 41.4479 63.5913 41.4225 63.5913 41.4225C63.5913 41.4225 63.5906 41.4479 63.5876 41.4975C63.5869 41.51 63.5861 41.5239 63.5851 41.5393C63.5831 41.5546 63.579 41.5712 63.5757 41.5893C63.5685 41.6255 63.5617 41.6678 63.5437 41.7132C63.5355 41.736 63.5281 41.7606 63.5181 41.7858C63.5062 41.8102 63.4939 41.836 63.4808 41.863C63.4689 41.8905 63.4521 41.9171 63.4343 41.9446C63.416 41.9718 63.4005 42.0026 63.3779 42.03C63.2958 42.1462 63.1796 42.2637 63.038 42.3813C62.754 42.6175 62.3538 42.8364 61.8675 43.0284C61.381 43.2214 60.8044 43.3813 60.1585 43.5075C59.5123 43.6339 58.7943 43.719 58.0213 43.7581C57.2482 43.7962 56.4189 43.7874 55.5517 43.7069C55.1183 43.6661 54.6756 43.6067 54.2275 43.5231C53.7793 43.4401 53.3258 43.3309 52.8746 43.1848C52.425 43.0368 51.9732 42.8548 51.559 42.5901C51.3537 42.4567 51.1549 42.304 50.9951 42.111C50.9154 42.0145 50.8473 41.9079 50.7955 41.7925C50.7477 41.6753 50.7189 41.5499 50.7168 41.422C50.7189 41.294 50.748 41.1686 50.7959 41.0516C50.8475 40.9362 50.916 40.8298 50.9957 40.7333C51.1557 40.5405 51.3543 40.3876 51.5598 40.2546C51.974 39.9901 52.4256 39.8081 52.8752 39.6602C53.3264 39.5141 53.7797 39.405 54.2279 39.3222C54.676 39.2386 55.1185 39.1792 55.5519 39.1384C56.4189 39.0579 57.2482 39.0491 58.0213 39.0872C58.7943 39.1263 59.5123 39.2114 60.1585 39.3376C60.8044 39.4638 61.381 39.6237 61.8675 39.8167C62.3538 40.0087 62.754 40.2274 63.038 40.4638C63.1796 40.5813 63.2958 40.6989 63.3779 40.8151C63.4005 40.8425 63.416 40.8733 63.4343 40.9005C63.4521 40.928 63.4689 40.9546 63.4808 40.9823C63.4939 41.0093 63.5064 41.035 63.5181 41.0595C63.5281 41.0846 63.5357 41.1093 63.5437 41.1321C63.5617 41.1774 63.5685 41.2198 63.5757 41.2559C63.579 41.2741 63.5833 41.2905 63.5851 41.3059C63.5861 41.3214 63.5869 41.3352 63.5876 41.3477C63.5906 41.3971 63.5913 41.4225 63.5913 41.4225Z" fill="#FF725E"/>
<path d="M61.2432 36.0919C61.2432 36.0919 61.2216 36.0784 61.1802 36.0513C61.1698 36.0445 61.1581 36.0368 61.1454 36.0284C61.1321 36.0208 61.1165 36.0142 61.1001 36.0062C61.0671 35.9904 61.0294 35.9702 60.9825 35.9572C60.9595 35.9499 60.9354 35.9409 60.9095 35.9337C60.8831 35.9284 60.8552 35.9228 60.8259 35.9167C60.797 35.9095 60.7657 35.9068 60.7333 35.9042C60.7009 35.9023 60.6671 35.8958 60.6317 35.8972C60.4903 35.8917 60.3272 35.9122 60.1485 35.9529C59.7899 36.0339 59.3735 36.2171 58.9257 36.4845C58.4769 36.7515 57.9989 37.1097 57.5052 37.5431C57.011 37.9767 56.5054 38.4921 56.0025 39.079C55.5001 39.6665 55.0005 40.3269 54.5343 41.0606C54.3017 41.4276 54.0781 41.8134 53.8704 42.2181C53.662 42.6224 53.4712 43.0466 53.3111 43.4913C53.1532 43.9358 53.0212 44.4024 52.9769 44.888C52.9566 45.13 52.9558 45.378 53.0093 45.6182C53.0363 45.738 53.0775 45.8548 53.1357 45.9633C53.197 46.07 53.2759 46.1665 53.3722 46.244C53.4714 46.318 53.5843 46.3706 53.7029 46.4038C53.8226 46.4329 53.9458 46.4442 54.0687 46.4403C54.3148 46.4325 54.555 46.37 54.7843 46.2899C55.2437 46.126 55.6628 45.8817 56.054 45.6182C56.4448 45.3522 56.8081 45.0616 57.1478 44.7591C57.488 44.4569 57.8058 44.1442 58.1032 43.8274C58.6978 43.1931 59.2128 42.5444 59.6565 41.9114C60.0997 41.278 60.4725 40.6599 60.7694 40.0731C61.0661 39.4868 61.2936 38.9347 61.4405 38.4335C61.5878 37.9333 61.6614 37.4845 61.6505 37.1169C61.6452 36.9337 61.6245 36.7706 61.5839 36.6353C61.5764 36.6007 61.5618 36.5696 61.5518 36.5388C61.5413 36.5079 61.5307 36.4786 61.5167 36.4523C61.5036 36.4255 61.4913 36.3999 61.4794 36.3757C61.4659 36.3525 61.4513 36.3314 61.4386 36.3109C61.4143 36.2689 61.3854 36.2374 61.3618 36.2093C61.3499 36.1954 61.3395 36.182 61.3288 36.171C61.3175 36.1607 61.3071 36.1513 61.2979 36.1431C61.2616 36.1095 61.2432 36.0919 61.2432 36.0919C61.2432 36.0919 61.2628 36.1081 61.3003 36.1407C61.3097 36.1489 61.3202 36.1581 61.3317 36.1683C61.3427 36.1792 61.3532 36.1925 61.3653 36.2064C61.3893 36.2343 61.4188 36.2655 61.4436 36.3075C61.4567 36.328 61.4716 36.3489 61.4854 36.3724C61.4975 36.3968 61.5102 36.4224 61.5235 36.4491C61.538 36.4755 61.5487 36.505 61.5597 36.5359C61.57 36.5669 61.5848 36.598 61.5927 36.6327C61.6343 36.7689 61.6559 36.9325 61.6622 37.1165C61.6749 37.4857 61.6026 37.936 61.4565 38.438C61.311 38.9407 61.0843 39.4942 60.7882 40.0823C60.4921 40.6704 60.1196 41.2901 59.6767 41.9251C59.2331 42.5595 58.7181 43.2095 58.1231 43.8454C57.8253 44.163 57.5073 44.4764 57.1665 44.7794C56.8263 45.0829 56.4622 45.3745 56.0702 45.6415C55.6777 45.9061 55.2571 46.1516 54.7941 46.3169C54.5628 46.3975 54.3202 46.461 54.0698 46.469C53.9448 46.4729 53.8187 46.4614 53.6958 46.4315C53.5739 46.3975 53.4573 46.3434 53.3548 46.2667C53.255 46.1866 53.1738 46.0868 53.1107 45.9772C53.0509 45.8657 53.0089 45.7464 52.9814 45.6243C52.9269 45.3798 52.9281 45.1292 52.9486 44.8852C52.9933 44.3958 53.1261 43.9274 53.2847 43.4815C53.4456 43.0354 53.6372 42.6102 53.8462 42.2052C54.0546 41.7997 54.279 41.4136 54.5122 41.0462C54.9798 40.3116 55.481 39.6509 55.9847 39.0632C56.4892 38.4761 56.9964 37.9609 57.4921 37.5275C57.9876 37.0943 58.4673 36.7366 58.9179 36.4704C59.3675 36.2036 59.7858 36.0214 60.1464 35.9417C60.3261 35.9019 60.4901 35.882 60.6323 35.8884C60.6679 35.8872 60.7016 35.8939 60.7345 35.896C60.7671 35.8989 60.7983 35.9019 60.8274 35.9093C60.8567 35.9155 60.8847 35.9214 60.9112 35.9271C60.9372 35.9345 60.9614 35.9439 60.9845 35.9513C61.0313 35.9648 61.069 35.9855 61.102 36.0019C61.1184 36.0103 61.1341 36.0171 61.1473 36.0249C61.16 36.0337 61.1716 36.0415 61.1819 36.0486C61.2227 36.0769 61.2432 36.0919 61.2432 36.0919Z" fill="#FF725E"/>
<path d="M50.6615 44.077C50.7548 44.1703 50.7548 44.3215 50.6615 44.4146C50.5683 44.5078 50.4169 44.5078 50.3238 44.4146C50.2306 44.3215 50.2306 44.1701 50.3238 44.077C50.4171 43.9838 50.5683 43.9838 50.6615 44.077Z" fill="#FF725E"/>
<path d="M64.1359 36.674C64.1359 36.8059 64.0291 36.9129 63.8971 36.9129C63.7652 36.9129 63.6582 36.8061 63.6582 36.674C63.6582 36.5422 63.765 36.4352 63.8971 36.4352C64.0289 36.4352 64.1359 36.5422 64.1359 36.674Z" fill="#FF725E"/>
<path d="M52.1684 44.8637C52.1684 44.8973 52.1412 44.9245 52.1076 44.9245C52.074 44.9245 52.0469 44.8973 52.0469 44.8637C52.0469 44.8301 52.074 44.803 52.1076 44.803C52.1412 44.803 52.1684 44.8301 52.1684 44.8637Z" fill="#FF725E"/>
<path d="M53.4652 38.1668C53.4652 38.2004 53.4381 38.2276 53.4045 38.2276C53.3709 38.2276 53.3438 38.2004 53.3438 38.1668C53.3438 38.1332 53.3709 38.1061 53.4045 38.1061C53.4381 38.1061 53.4652 38.1332 53.4652 38.1668Z" fill="#FF725E"/>
<path d="M62.9359 41.4216C62.9359 41.4552 62.9088 41.4823 62.8752 41.4823C62.8416 41.4823 62.8145 41.4552 62.8145 41.4216C62.8145 41.388 62.8416 41.3608 62.8752 41.3608C62.9088 41.361 62.9359 41.3882 62.9359 41.4216Z" fill="#FF725E"/>
<path d="M63.7797 38.59C63.7797 38.6236 63.7525 38.6508 63.7189 38.6508C63.6854 38.6508 63.6582 38.6236 63.6582 38.59C63.6582 38.5564 63.6854 38.5293 63.7189 38.5293C63.7525 38.5293 63.7797 38.5564 63.7797 38.59Z" fill="#FF725E"/>
<path d="M59.6879 42.7604H58.9373V38.6755C58.9373 37.714 58.1551 36.9317 57.1935 36.9317C56.232 36.9317 55.4498 37.714 55.4498 38.6755V42.7604H54.6992V38.6755C54.6992 37.3001 55.8182 36.1812 57.1934 36.1812C58.5685 36.1812 59.6877 37.3001 59.6877 38.6755V42.7604H59.6879Z" fill="#FF725E"/>
<g opacity="0.3">
<path d="M59.6879 42.7604H58.9373V38.6755C58.9373 37.714 58.1551 36.9317 57.1935 36.9317C56.232 36.9317 55.4498 37.714 55.4498 38.6755V42.7604H54.6992V38.6755C54.6992 37.3001 55.8182 36.1812 57.1934 36.1812C58.5685 36.1812 59.6877 37.3001 59.6877 38.6755V42.7604H59.6879Z" fill="#262524"/>
</g>
<path d="M60.1148 45.2568H54.2719C54.0289 45.2568 53.832 45.0599 53.832 44.8169V41.3836C53.832 41.1406 54.0289 40.9437 54.2719 40.9437H60.1148C60.3578 40.9437 60.5547 41.1406 60.5547 41.3836V44.8169C60.5547 45.0597 60.3578 45.2568 60.1148 45.2568Z" fill="#FF725E"/>
<g opacity="0.3">
<path d="M57.7547 42.5358C57.7547 42.2254 57.5031 41.9739 57.1928 41.9739C56.8824 41.9739 56.6309 42.2254 56.6309 42.5358C56.6309 42.7926 56.8041 43.0069 57.0395 43.0739V43.9139H57.3461V43.0739C57.5814 43.0069 57.7547 42.7926 57.7547 42.5358Z" fill="#262524"/>
</g>
<path d="M54.19 44.8533C54.1746 44.8533 54.1621 44.1339 54.1621 43.2468C54.1621 42.3595 54.1746 41.6404 54.19 41.6404C54.2055 41.6404 54.218 42.3595 54.218 43.2468C54.2178 44.1339 54.2053 44.8533 54.19 44.8533Z" fill="#FAFAFA"/>
<path d="M56.7536 43.257C56.7519 43.2597 56.7273 43.2482 56.6878 43.2197C56.6482 43.1914 56.5954 43.1427 56.5429 43.072C56.438 42.9345 56.3423 42.6849 56.4044 42.4154C56.4697 42.1464 56.6673 41.9664 56.8226 41.8904C56.9011 41.8507 56.97 41.831 57.0183 41.8234C57.0665 41.8156 57.0935 41.8164 57.0939 41.8195C57.0962 41.83 56.9872 41.8402 56.8415 41.925C56.698 42.006 56.5189 42.1796 56.4587 42.4281C56.4011 42.6769 56.4833 42.9127 56.5753 43.0494C56.6677 43.1908 56.7605 43.2486 56.7536 43.257Z" fill="#FAFAFA"/>
<path d="M67.177 52.8165H46.4779C45.4728 52.8165 44.6582 52.0018 44.6582 50.9967V50.7727C44.6582 49.7676 45.4728 48.953 46.4779 48.953H67.177C68.1821 48.953 68.9968 49.7676 68.9968 50.7727V50.9967C68.9968 52.0016 68.1821 52.8165 67.177 52.8165Z" fill="#F5F5F5"/>
<path d="M67.3567 58.1135H46.6576C45.6525 58.1135 44.8379 57.2988 44.8379 56.2937V56.0697C44.8379 55.0646 45.6525 54.25 46.6576 54.25H67.3567C68.3618 54.25 69.1764 55.0646 69.1764 56.0697V56.2937C69.1764 57.2988 68.3616 58.1135 67.3567 58.1135Z" fill="#F5F5F5"/>
<path d="M48.5039 50.8539V50.2943H48.7353V50.8453C48.7353 51.0351 48.8182 51.1136 48.958 51.1136C49.0994 51.1136 49.1809 51.0351 49.1809 50.8453V50.2943H49.4092V50.8539C49.4092 51.1478 49.2408 51.3107 48.9568 51.3107C48.6725 51.3107 48.5039 51.148 48.5039 50.8539Z" fill="#262524"/>
<path d="M49.5469 51.2225L49.6211 51.0625C49.6896 51.1069 49.7937 51.1367 49.8879 51.1367C49.9906 51.1367 50.0293 51.1096 50.0293 51.0668C50.0293 50.9412 49.5654 51.0697 49.5654 50.7627C49.5654 50.617 49.6969 50.5143 49.9209 50.5143C50.0264 50.5143 50.1436 50.5385 50.2164 50.5815L50.1422 50.7399C50.0664 50.6971 49.9908 50.6828 49.9209 50.6828C49.8209 50.6828 49.7781 50.7143 49.7781 50.7543C49.7781 50.8856 50.2422 50.7586 50.2422 51.0612C50.2422 51.2039 50.1094 51.3053 49.8797 51.3053C49.7494 51.3053 49.6182 51.2696 49.5469 51.2225Z" fill="#262524"/>
<path d="M51.1277 50.9725H50.5467C50.568 51.0682 50.6492 51.1266 50.7664 51.1266C50.8478 51.1266 50.9064 51.1024 50.9592 51.0524L51.0775 51.1809C51.0062 51.2623 50.899 51.3051 50.7605 51.3051C50.4951 51.3051 50.3223 51.1381 50.3223 50.9096C50.3223 50.6797 50.4979 50.5143 50.7322 50.5143C50.9576 50.5143 51.1318 50.6656 51.1318 50.9125C51.132 50.9297 51.1291 50.9539 51.1277 50.9725ZM50.5439 50.8426H50.9223C50.9066 50.7455 50.8338 50.6826 50.7338 50.6826C50.6324 50.6826 50.5596 50.744 50.5439 50.8426Z" fill="#262524"/>
<path d="M51.7582 50.5143V50.7199C51.7394 50.7186 51.7254 50.717 51.7082 50.717C51.5854 50.717 51.5039 50.784 51.5039 50.9311V51.2936H51.2812V50.5256H51.4939V50.627C51.548 50.5528 51.6394 50.5143 51.7582 50.5143Z" fill="#262524"/>
<path d="M52.6758 50.8541V51.2938H52.4531V50.8883C52.4531 50.7641 52.3959 50.7071 52.2975 50.7071C52.1904 50.7071 52.1133 50.7727 52.1133 50.9141V51.2938H51.8906V50.5258H52.1033V50.6156C52.1633 50.55 52.2533 50.5143 52.3574 50.5143C52.5389 50.5145 52.6758 50.6201 52.6758 50.8541Z" fill="#262524"/>
<path d="M53.5555 50.8555V51.2938H53.3473V51.1981C53.3059 51.268 53.226 51.3051 53.1131 51.3051C52.9332 51.3051 52.8262 51.2051 52.8262 51.0725C52.8262 50.9369 52.9217 50.8426 53.1559 50.8426H53.3328C53.3328 50.7469 53.2756 50.6912 53.1559 50.6912C53.0744 50.6912 52.9902 50.7184 52.9346 50.7627L52.8547 50.6071C52.9389 50.5471 53.0629 50.5143 53.1857 50.5143C53.4197 50.5143 53.5555 50.6227 53.5555 50.8555ZM53.3328 51.051V50.9725H53.1801C53.076 50.9725 53.0432 51.011 53.0432 51.0623C53.0432 51.118 53.0902 51.1551 53.1687 51.1551C53.2428 51.1551 53.307 51.1209 53.3328 51.051Z" fill="#262524"/>
<path d="M55.0555 50.8541V51.2938H54.8328V50.8883C54.8328 50.7641 54.7771 50.7071 54.6871 50.7071C54.5871 50.7071 54.5174 50.7713 54.5174 50.9082V51.2938H54.2945V50.8883C54.2945 50.7641 54.2416 50.7071 54.149 50.7071C54.0504 50.7071 53.9805 50.7713 53.9805 50.9082V51.2938H53.7578V50.5258H53.9705V50.6143C54.0275 50.5487 54.1131 50.5143 54.2117 50.5143C54.3187 50.5143 54.4101 50.5557 54.4644 50.6399C54.5258 50.5614 54.6256 50.5143 54.7414 50.5143C54.9242 50.5145 55.0555 50.6201 55.0555 50.8541Z" fill="#262524"/>
<path d="M56.0123 50.9725H55.4312C55.4525 51.0682 55.5338 51.1266 55.651 51.1266C55.7324 51.1266 55.791 51.1024 55.8437 51.0524L55.9621 51.1809C55.8908 51.2623 55.7836 51.3051 55.6451 51.3051C55.3797 51.3051 55.207 51.1381 55.207 50.9096C55.207 50.6797 55.3824 50.5143 55.6168 50.5143C55.8422 50.5143 56.0164 50.6656 56.0164 50.9125C56.0164 50.9297 56.0137 50.9539 56.0123 50.9725ZM55.4285 50.8426H55.8066C55.791 50.7455 55.7182 50.6826 55.6182 50.6826C55.517 50.6826 55.4441 50.744 55.4285 50.8426Z" fill="#262524"/>
<path d="M57.4834 50.9011C57.4834 51.1566 57.3664 51.3023 57.1908 51.3023C57.0937 51.3023 57.0252 51.2595 56.9953 51.1781C56.9453 51.2582 56.8639 51.3023 56.7512 51.3023C56.567 51.3023 56.4213 51.1566 56.4213 50.9412C56.4213 50.7269 56.5654 50.5814 56.7512 50.5814C56.8453 50.5814 56.9195 50.6142 56.9711 50.6756V50.5912H57.165V51.0537C57.165 51.1222 57.1951 51.1451 57.2338 51.1451C57.2994 51.1451 57.3394 51.0695 57.3394 50.9039C57.3394 50.6142 57.1252 50.4142 56.8082 50.4142C56.4898 50.4142 56.2771 50.6312 56.2771 50.9297C56.2771 51.2338 56.4855 51.4494 56.8025 51.4494C56.8926 51.4494 56.9937 51.4308 57.0838 51.3865L57.1293 51.5177C57.0424 51.5621 56.9152 51.5863 56.8023 51.5863C56.3898 51.5863 56.1172 51.3064 56.1172 50.9297C56.1172 50.557 56.3926 50.2787 56.808 50.2787C57.2094 50.2787 57.4834 50.5427 57.4834 50.9011ZM56.974 50.9412C56.974 50.817 56.8982 50.747 56.7955 50.747C56.6914 50.747 56.6185 50.8199 56.6185 50.9412C56.6185 51.0638 56.6914 51.1381 56.7955 51.1381C56.8982 51.1381 56.974 51.0668 56.974 50.9412Z" fill="#262524"/>
<path d="M58.9402 50.8541V51.2938H58.7176V50.8883C58.7176 50.7641 58.6619 50.7071 58.5719 50.7071C58.4719 50.7071 58.4021 50.7713 58.4021 50.9082V51.2938H58.1793V50.8883C58.1793 50.7641 58.1264 50.7071 58.0338 50.7071C57.9352 50.7071 57.8652 50.7713 57.8652 50.9082V51.2938H57.6426V50.5258H57.8553V50.6143C57.9123 50.5487 57.9979 50.5143 58.0965 50.5143C58.2035 50.5143 58.2949 50.5557 58.3492 50.6399C58.4105 50.5614 58.5103 50.5143 58.6262 50.5143C58.809 50.5145 58.9402 50.6201 58.9402 50.8541Z" fill="#262524"/>
<path d="M59.8191 50.8555V51.2938H59.6109V51.1981C59.5695 51.268 59.4896 51.3051 59.3768 51.3051C59.1969 51.3051 59.0898 51.2051 59.0898 51.0725C59.0898 50.9369 59.1853 50.8426 59.4195 50.8426H59.5965C59.5965 50.7469 59.5394 50.6912 59.4195 50.6912C59.3381 50.6912 59.2539 50.7184 59.1982 50.7627L59.1184 50.6071C59.2025 50.5471 59.3266 50.5143 59.4494 50.5143C59.6836 50.5143 59.8191 50.6227 59.8191 50.8555ZM59.5965 51.051V50.9725H59.4438C59.3396 50.9725 59.3068 51.011 59.3068 51.0623C59.3068 51.118 59.3539 51.1551 59.4324 51.1551C59.5064 51.1551 59.5707 51.1209 59.5965 51.051Z" fill="#262524"/>
<path d="M59.9941 50.294C59.9941 50.2241 60.0498 50.1698 60.1326 50.1698C60.2154 50.1698 60.2711 50.2212 60.2711 50.2897C60.2711 50.3639 60.2154 50.4182 60.1326 50.4182C60.0498 50.4182 59.9941 50.3639 59.9941 50.294ZM60.0211 50.5253H60.2437V51.2932H60.0211V50.5253Z" fill="#262524"/>
<path d="M60.4492 50.2343H60.6719V51.2934H60.4492V50.2343Z" fill="#262524"/>
<path d="M60.8262 51.1649C60.8262 51.0821 60.8875 51.0278 60.9647 51.0278C61.042 51.0278 61.1031 51.0821 61.1031 51.1649C61.1031 51.2462 61.0418 51.3048 60.9647 51.3048C60.8877 51.3048 60.8262 51.2462 60.8262 51.1649Z" fill="#262524"/>
<path d="M61.1855 50.9096C61.1855 50.6783 61.3641 50.5143 61.6139 50.5143C61.7752 50.5143 61.9023 50.5842 61.958 50.7098L61.7852 50.8026C61.7437 50.7297 61.6824 50.6969 61.6123 50.6969C61.4996 50.6969 61.4111 50.7754 61.4111 50.9096C61.4111 51.0438 61.4996 51.1223 61.6123 51.1223C61.6822 51.1223 61.7437 51.0908 61.7852 51.0166L61.958 51.1108C61.9023 51.2334 61.7752 51.3049 61.6139 51.3049C61.3641 51.3051 61.1855 51.1408 61.1855 50.9096Z" fill="#262524"/>
<path d="M62.0195 50.9096C62.0195 50.6783 62.1978 50.5143 62.442 50.5143C62.6861 50.5143 62.8631 50.6783 62.8631 50.9096C62.8631 51.1408 62.6861 51.3051 62.442 51.3051C62.1978 51.3051 62.0195 51.1408 62.0195 50.9096ZM62.6377 50.9096C62.6377 50.7768 62.5535 50.6969 62.4422 50.6969C62.3309 50.6969 62.2451 50.7768 62.2451 50.9096C62.2451 51.0424 62.3309 51.1223 62.4422 51.1223C62.5535 51.1223 62.6377 51.0424 62.6377 50.9096Z" fill="#262524"/>
<path d="M64.3094 50.8541V51.2938H64.0867V50.8883C64.0867 50.7641 64.031 50.7071 63.941 50.7071C63.841 50.7071 63.7713 50.7713 63.7713 50.9082V51.2938H63.5484V50.8883C63.5484 50.7641 63.4955 50.7071 63.4029 50.7071C63.3043 50.7071 63.2344 50.7713 63.2344 50.9082V51.2938H63.0117V50.5258H63.2244V50.6143C63.2814 50.5487 63.367 50.5143 63.4656 50.5143C63.5727 50.5143 63.6641 50.5557 63.7184 50.6399C63.7795 50.5614 63.8795 50.5143 63.9953 50.5143C64.1781 50.5145 64.3094 50.6201 64.3094 50.8541Z" fill="#262524"/>
<path d="M51.4877 56.2016L51.8492 56.3973L51.6867 56.6694L51.3219 56.4538L51.3285 56.8551H51.0166L51.0201 56.4505L50.6553 56.6694L50.4961 56.3973L50.8576 56.2016L50.4961 56.0026L50.6553 55.7305L51.0201 55.9495L51.0166 55.5448H51.3285L51.3219 55.9495L51.6867 55.7305L51.8492 56.0026L51.4877 56.2016Z" fill="#262524"/>
<path d="M52.9935 56.2016L53.3551 56.3973L53.1926 56.6694L52.8277 56.4538L52.8344 56.8551H52.5225L52.526 56.4505L52.1611 56.6694L52.002 56.3973L52.3637 56.2016L52.002 56.0026L52.1611 55.7305L52.526 55.9495L52.5225 55.5448H52.8344L52.8277 55.9495L53.1926 55.7305L53.3551 56.0026L52.9935 56.2016Z" fill="#262524"/>
<path d="M54.4975 56.2016L54.859 56.3973L54.6965 56.6694L54.3316 56.4538L54.3383 56.8551H54.0264L54.0299 56.4505L53.665 56.6694L53.5059 56.3973L53.8676 56.2016L53.5059 56.0026L53.665 55.7305L54.0299 55.9495L54.0264 55.5448H54.3383L54.3316 55.9495L54.6965 55.7305L54.859 56.0026L54.4975 56.2016Z" fill="#262524"/>
<path d="M56.0033 56.2016L56.3648 56.3973L56.2023 56.6694L55.8375 56.4538L55.8441 56.8551H55.5322L55.5357 56.4505L55.1709 56.6694L55.0117 56.3973L55.3734 56.2016L55.0117 56.0026L55.1709 55.7305L55.5357 55.9495L55.5322 55.5448H55.8441L55.8375 55.9495L56.2023 55.7305L56.3648 56.0026L56.0033 56.2016Z" fill="#262524"/>
<path d="M57.5092 56.2016L57.8707 56.3973L57.7082 56.6694L57.3434 56.4538L57.35 56.8551H57.0381L57.0416 56.4505L56.6768 56.6694L56.5176 56.3973L56.8793 56.2016L56.5176 56.0026L56.6768 55.7305L57.0416 55.9495L57.0381 55.5448H57.35L57.3434 55.9495L57.7082 55.7305L57.8707 56.0026L57.5092 56.2016Z" fill="#262524"/>
<path d="M59.0133 56.2016L59.3748 56.3973L59.2123 56.6694L58.8475 56.4538L58.8541 56.8551H58.5422L58.5455 56.4505L58.1807 56.6694L58.0215 56.3973L58.3832 56.2016L58.0215 56.0026L58.1807 55.7305L58.5455 55.9495L58.5422 55.5448H58.8541L58.8475 55.9495L59.2123 55.7305L59.3748 56.0026L59.0133 56.2016Z" fill="#262524"/>
<path d="M60.5189 56.2016L60.8805 56.3973L60.718 56.6694L60.3531 56.4538L60.3598 56.8551H60.0479L60.0514 56.4505L59.6865 56.6694L59.5273 56.3973L59.8891 56.2016L59.5273 56.0026L59.6865 55.7305L60.0514 55.9495L60.0479 55.5448H60.3598L60.3531 55.9495L60.718 55.7305L60.8805 56.0026L60.5189 56.2016Z" fill="#262524"/>
<path d="M62.025 56.2016L62.3863 56.3973L62.2238 56.6694L61.859 56.4538L61.8656 56.8551H61.5537L61.5572 56.4505L61.1924 56.6694L61.0332 56.3973L61.3949 56.2016L61.0332 56.0026L61.1924 55.7305L61.5572 55.9495L61.5537 55.5448H61.8656L61.859 55.9495L62.2238 55.7305L62.3863 56.0026L62.025 56.2016Z" fill="#262524"/>
<path d="M78.4831 84.53H49.3766C48.6887 84.53 48.1309 83.9722 48.1309 83.2843V68.218C48.1309 67.5301 48.6885 66.9723 49.3766 66.9723H78.4831C79.1709 66.9723 79.7287 67.5301 79.7287 68.218V83.2843C79.7287 83.9724 79.1709 84.53 78.4831 84.53Z" fill="white"/>
<path d="M78.4834 84.5285C78.483 84.5231 78.5683 84.5301 78.7291 84.4989C78.8861 84.4643 79.1285 84.3826 79.3562 84.1573C79.4681 84.0448 79.5713 83.8952 79.6385 83.7112C79.675 83.6202 79.6939 83.5188 79.7082 83.4131C79.7162 83.3071 79.7146 83.1944 79.714 83.0772C79.7127 82.6084 79.7111 82.0682 79.7094 81.4602C79.7054 79.0251 79.7 75.5046 79.6931 71.155C79.6926 70.611 79.692 70.0544 79.6914 69.4851C79.6912 69.2005 79.6908 68.9126 79.6906 68.6218C79.6836 68.3306 79.7213 68.0327 79.6021 67.7665C79.4945 67.4999 79.2869 67.2718 79.0246 67.1404C78.8939 67.0743 78.7504 67.0323 78.6033 67.0173C78.458 67.0064 78.2996 67.0136 78.1469 67.0116C77.5297 67.012 76.9012 67.0126 76.2617 67.013C73.7035 67.0144 70.9703 67.0161 68.0942 67.0177C62.3417 67.0189 56.0175 67.0202 49.3792 67.0216C49.1798 67.0226 48.9822 67.073 48.807 67.1661C48.6343 67.2634 48.4824 67.3995 48.3755 67.5661C48.2701 67.7327 48.1996 67.9237 48.1871 68.1212C48.1773 68.3185 48.1843 68.5298 48.1822 68.7329C48.1822 69.5526 48.182 70.3669 48.182 71.1753C48.1818 72.7921 48.1814 74.385 48.1812 75.9505C48.1808 77.5157 48.1804 79.0534 48.1798 80.5592C48.1796 81.3122 48.1792 82.0571 48.179 82.7936C48.1804 82.9766 48.1759 83.1637 48.1818 83.342C48.19 83.518 48.2374 83.6911 48.3193 83.8457C48.4837 84.1559 48.7882 84.3832 49.1271 84.4549C49.2945 84.4944 49.4732 84.478 49.6533 84.4817C49.832 84.4817 50.0101 84.4819 50.1876 84.4819C50.5427 84.4821 50.8954 84.4823 51.2458 84.4825C51.9466 84.4828 52.638 84.4832 53.3193 84.4836C54.6819 84.4846 56.005 84.4854 57.2841 84.4862C59.8423 84.4885 62.2251 84.4905 64.4006 84.4924C68.7502 84.4993 72.2703 84.5047 74.7053 84.5086C75.9205 84.5127 76.8644 84.516 77.5068 84.5182C77.8258 84.5203 78.0693 84.5221 78.2353 84.5233C78.3994 84.5252 78.4834 84.5285 78.4834 84.5285C78.4834 84.5285 78.3994 84.5321 78.2351 84.5338C78.0691 84.535 77.8254 84.5366 77.5066 84.5389C76.8643 84.541 75.9203 84.5444 74.7051 84.5485C72.2701 84.5524 68.75 84.5578 64.4004 84.5647C62.2249 84.5666 59.8421 84.5686 57.2839 84.5709C56.0048 84.5717 54.6817 84.5725 53.3191 84.5735C52.6376 84.5739 51.9464 84.5742 51.2456 84.5746C50.8952 84.5748 50.5425 84.575 50.1874 84.5752C50.0099 84.5752 49.8318 84.5754 49.6531 84.5754C49.4769 84.5717 49.2929 84.5895 49.1076 84.5471C48.7419 84.47 48.4134 84.2252 48.2357 83.8907C48.1472 83.7237 48.0958 83.5366 48.0869 83.3469C48.0804 83.1594 48.0849 82.9789 48.0835 82.7938C48.0833 82.0573 48.083 81.3122 48.0828 80.5594C48.0824 79.0536 48.082 77.5159 48.0816 75.9507C48.0814 74.3854 48.081 72.7923 48.0808 71.1755C48.0808 70.3671 48.0806 69.5528 48.0806 68.7331C48.083 68.5265 48.0753 68.3269 48.0857 68.1134C48.0994 67.8995 48.1755 67.6915 48.2902 67.5109C48.4064 67.33 48.5708 67.1822 48.7583 67.0769C48.9484 66.9757 49.1636 66.921 49.3792 66.92C56.0173 66.9214 62.3415 66.9228 68.0942 66.9239C70.9703 66.9255 73.7035 66.9271 76.2617 66.9286C76.9012 66.929 77.5299 66.9296 78.1469 66.93C78.3025 66.9323 78.4515 66.9249 78.6113 66.9368C78.7683 66.9531 78.9215 66.9982 79.0607 67.0689C79.3402 67.2095 79.5609 67.4529 79.675 67.737C79.7332 67.8788 79.7637 68.0308 79.7662 68.1821C79.7666 68.3294 79.767 68.4759 79.7676 68.6216C79.7674 68.9124 79.767 69.2001 79.7668 69.4849C79.7662 70.0542 79.7656 70.611 79.765 71.1548C79.7582 75.5044 79.7527 79.0249 79.7488 81.46C79.747 82.068 79.7455 82.6084 79.7441 83.077C79.7439 83.194 79.7449 83.3065 79.7357 83.4159C79.7203 83.5239 79.7 83.6272 79.6621 83.7198C79.592 83.9069 79.4855 84.0584 79.3705 84.1715C79.1367 84.3983 78.8898 84.4772 78.731 84.5088C78.6494 84.5215 78.5877 84.5287 78.5459 84.5278C78.5045 84.5293 78.4834 84.5285 78.4834 84.5285Z" fill="#262524"/>
<path d="M59.1389 73.1742V73.3935H58.2246V72.2126H59.1168V72.432H58.4961V72.6884H59.0443V72.9011H58.4961V73.1742H59.1389Z" fill="#262524"/>
<path d="M60.4404 72.2126V73.3935H60.2162L59.6273 72.6765V73.3935H59.3574V72.2126H59.5834L60.1705 72.9296V72.2126H60.4404Z" fill="#262524"/>
<path d="M60.9639 72.4355H60.5859V72.2126H61.615V72.4355H61.2371V73.3935H60.9639V72.4355Z" fill="#262524"/>
<path d="M62.6779 73.1742V73.3935H61.7637V72.2126H62.6559V72.432H62.0352V72.6884H62.5834V72.9011H62.0352V73.1742H62.6779Z" fill="#262524"/>
<path d="M63.6467 73.3935L63.4189 73.0644H63.4057H63.1678V73.3935H62.8945V72.2126H63.4057C63.7209 72.2126 63.9184 72.3763 63.9184 72.6412C63.9184 72.8181 63.8289 72.948 63.6756 73.0138L63.9402 73.3933H63.6467V73.3935ZM63.3904 72.4353H63.1678V72.8468H63.3904C63.5574 72.8468 63.6418 72.7691 63.6418 72.641C63.6418 72.5113 63.5574 72.4353 63.3904 72.4353Z" fill="#262524"/>
<path d="M64.5391 72.8034C64.5391 72.4475 64.8123 72.1926 65.1801 72.1926C65.3842 72.1926 65.5545 72.2668 65.6658 72.4018L65.4904 72.5637C65.4111 72.4725 65.3115 72.4254 65.1934 72.4254C64.9725 72.4254 64.8154 72.5805 64.8154 72.8034C64.8154 73.026 64.9725 73.1813 65.1934 73.1813C65.3113 73.1813 65.4109 73.134 65.4904 73.0413L65.6658 73.2032C65.5545 73.3397 65.3842 73.4139 65.1783 73.4139C64.8123 73.4139 64.5391 73.1592 64.5391 72.8034Z" fill="#262524"/>
<path d="M65.75 72.8034C65.75 72.4524 66.0232 72.1926 66.3961 72.1926C66.7672 72.1926 67.0422 72.4506 67.0422 72.8034C67.0422 73.1559 66.7674 73.4139 66.3961 73.4139C66.0232 73.4139 65.75 73.1541 65.75 72.8034ZM66.7654 72.8034C66.7654 72.5789 66.607 72.4254 66.3959 72.4254C66.1851 72.4254 66.0264 72.5788 66.0264 72.8034C66.0264 73.0276 66.1851 73.1813 66.3959 73.1813C66.607 73.1813 66.7654 73.0278 66.7654 72.8034Z" fill="#262524"/>
<path d="M67.248 72.2126H67.7844C68.1707 72.2126 68.4355 72.4455 68.4355 72.8031C68.4355 73.1607 68.1709 73.3933 67.7844 73.3933H67.248V72.2126ZM67.7711 73.1691C68.0055 73.1691 68.159 73.029 68.159 72.8031C68.159 72.5771 68.0055 72.4371 67.7711 72.4371H67.5215V73.1691H67.7711Z" fill="#262524"/>
<path d="M69.5549 73.1742V73.3935H68.6406V72.2126H69.5328V72.432H68.9121V72.6884H69.4603V72.9011H68.9121V73.1742H69.5549Z" fill="#262524"/>
<path d="M54.6594 81.2914H51.7914C51.365 81.2914 51.0195 80.9459 51.0195 80.5196V76.053C51.0195 75.6266 51.365 75.2811 51.7914 75.2811H54.6594C55.0857 75.2811 55.4312 75.6268 55.4312 76.053V80.5196C55.4312 80.9457 55.0855 81.2914 54.6594 81.2914Z" fill="#EBEBEB"/>
<path d="M60.1691 81.2914H57.3012C56.8748 81.2914 56.5293 80.9459 56.5293 80.5196V76.053C56.5293 75.6266 56.8748 75.2811 57.3012 75.2811H60.1691C60.5955 75.2811 60.941 75.6268 60.941 76.053V80.5196C60.941 80.9457 60.5955 81.2914 60.1691 81.2914Z" fill="#EBEBEB"/>
<path d="M65.6787 81.2914H62.8109C62.3846 81.2914 62.0391 80.9459 62.0391 80.5196V76.053C62.0391 75.6266 62.3848 75.2811 62.8109 75.2811H65.6787C66.1051 75.2811 66.4506 75.6268 66.4506 76.053V80.5196C66.4508 80.9457 66.1051 81.2914 65.6787 81.2914Z" fill="#EBEBEB"/>
<path d="M71.1867 81.2914H68.3188C67.8924 81.2914 67.5469 80.9459 67.5469 80.5196V76.053C67.5469 75.6266 67.8926 75.2811 68.3188 75.2811H71.1867C71.6131 75.2811 71.9586 75.6268 71.9586 76.053V80.5196C71.9586 80.9457 71.6131 81.2914 71.1867 81.2914Z" fill="#EBEBEB"/>
<path d="M76.6965 81.2914H73.8285C73.4022 81.2914 73.0566 80.9459 73.0566 80.5196V76.053C73.0566 75.6266 73.4022 75.2811 73.8285 75.2811H76.6965C77.1228 75.2811 77.4683 75.6268 77.4683 76.053V80.5196C77.4685 80.9457 77.1228 81.2914 76.6965 81.2914Z" fill="#EBEBEB"/>
<path d="M54.1861 78.7493C54.1861 79.1784 53.8543 79.4567 53.4049 79.4567C52.7881 79.4567 52.4629 79.0142 52.4629 78.28C52.4629 77.4855 52.8853 77.0763 53.5057 77.0763C53.7066 77.0763 53.8945 77.1099 54.0387 77.197L53.9682 77.3345C53.8476 77.2573 53.6832 77.2271 53.5057 77.2271C52.9793 77.2271 52.6338 77.5726 52.6338 78.253C52.6338 78.3234 52.6373 78.4275 52.6541 78.5347C52.7514 78.2263 53.0463 78.0519 53.4018 78.0519C53.8711 78.0519 54.1861 78.3269 54.1861 78.7493ZM54.015 78.7525C54.015 78.4173 53.7738 78.1993 53.3781 78.1993C52.9924 78.1993 52.7275 78.4441 52.7275 78.7593C52.7275 79.0341 52.959 79.3089 53.3982 79.3089C53.7637 79.3091 54.015 79.0913 54.015 78.7525Z" fill="#FF725E"/>
<path d="M59.6369 78.789H59.1441V79.4393H58.9766V78.789H57.6387V78.6647L58.9127 77.0923H59.1037L57.8533 78.638H58.9799V78.0645H59.1441V78.638H59.6369V78.789Z" fill="#FF725E"/>
<path d="M65.3201 79.7743C65.3201 79.8024 64.8623 79.8251 64.2978 79.8251C63.733 79.8251 63.2754 79.8022 63.2754 79.7743C63.2754 79.7462 63.733 79.7235 64.2978 79.7235C64.8623 79.7235 65.3201 79.7464 65.3201 79.7743Z" fill="#FF725E"/>
<path d="M50.1365 69.2043C50.4007 69.2043 50.6148 68.9902 50.6148 68.726C50.6148 68.4618 50.4007 68.2477 50.1365 68.2477C49.8724 68.2477 49.6582 68.4618 49.6582 68.726C49.6582 68.9902 49.8724 69.2043 50.1365 69.2043Z" fill="#262524"/>
<path d="M51.9937 68.726C51.9937 68.9903 51.7797 69.2043 51.5154 69.2043C51.2512 69.2043 51.0371 68.9901 51.0371 68.726C51.0371 68.4619 51.2512 68.2477 51.5154 68.2477C51.7797 68.2477 51.9937 68.4617 51.9937 68.726Z" fill="#262524"/>
<path d="M52.8689 69.2043C53.1331 69.2043 53.3473 68.9902 53.3473 68.726C53.3473 68.4618 53.1331 68.2477 52.8689 68.2477C52.6048 68.2477 52.3906 68.4618 52.3906 68.726C52.3906 68.9902 52.6048 69.2043 52.8689 69.2043Z" fill="#262524"/>
<path d="M79.7764 70.0718C79.7764 70.0999 72.7018 70.1226 63.9769 70.1226C55.249 70.1226 48.1758 70.0997 48.1758 70.0718C48.1758 70.0436 55.2488 70.021 63.9769 70.021C72.7018 70.0208 79.7764 70.0436 79.7764 70.0718Z" fill="#262524"/>
</g>
</g>
<defs>
<filter id="filter0_d_703_62726" x="15.3619" y="18.2248" width="79.9735" height="68.5199" filterUnits="userSpaceOnUse" color-interpolation-filters="sRGB">
<feFlood flood-opacity="0" result="BackgroundImageFix"/>
<feColorMatrix in="SourceAlpha" type="matrix" values="0 0 0 0 0 0 0 0 0 0 0 0 0 0 0 0 0 0 127 0" result="hardAlpha"/>
<feOffset dy="-2.16867"/>
<feGaussianBlur stdDeviation="2.16867"/>
<feColorMatrix type="matrix" values="0 0 0 0 0.788235 0 0 0 0 0.803922 0 0 0 0 0.85098 0 0 0 0.349 0"/>
<feBlend mode="normal" in2="BackgroundImageFix" result="effect1_dropShadow_703_62726"/>
<feBlend mode="normal" in="SourceGraphic" in2="effect1_dropShadow_703_62726" result="shape"/>
</filter>
<linearGradient id="paint0_linear_703_62726" x1="55.0001" y1="0" x2="55.0001" y2="108.434" gradientUnits="userSpaceOnUse">
<stop stop-color="#AEC1DE"/>
<stop offset="1" stop-color="#DAE7FF"/>
</linearGradient>
</defs>
</svg>
