<svg width="24" height="24" viewBox="0 0 24 24" fill="none" xmlns="http://www.w3.org/2000/svg">
<path d="M7.76471 4C7.26548 4 6.78669 4.19832 6.43368 4.55133C6.08067 4.90434 5.88235 5.38312 5.88235 5.88235V11.1529C6.18325 10.9992 6.49848 10.8753 6.82353 10.7831V5.88235C6.82353 5.63274 6.92269 5.39335 7.09919 5.21684C7.2757 5.04034 7.51509 4.94118 7.76471 4.94118H15.2941C15.5437 4.94118 15.7831 5.04034 15.9596 5.21684C16.1361 5.39335 16.2353 5.63274 16.2353 5.88235V17.1765C16.2353 17.4261 16.1361 17.6655 15.9596 17.842C15.7831 18.0185 15.5437 18.1176 15.2941 18.1176H12.8471C12.6758 18.4529 12.4684 18.7685 12.2287 19.0588H15.2941C15.7933 19.0588 16.2721 18.8605 16.6251 18.5075C16.9782 18.1545 17.1765 17.6757 17.1765 17.1765V5.88235C17.1765 5.38312 16.9782 4.90434 16.6251 4.55133C16.2721 4.19832 15.7933 4 15.2941 4H7.76471ZM7.76471 7.29412V9.17647C7.76471 9.30128 7.81429 9.42097 7.90254 9.50923C7.99079 9.59748 8.11049 9.64706 8.23529 9.64706H14.8235C14.9483 9.64706 15.068 9.59748 15.1563 9.50923C15.2445 9.42097 15.2941 9.30128 15.2941 9.17647V7.29412C15.2941 7.16931 15.2445 7.04961 15.1563 6.96136C15.068 6.87311 14.9483 6.82353 14.8235 6.82353H8.23529C8.11049 6.82353 7.99079 6.87311 7.90254 6.96136C7.81429 7.04961 7.76471 7.16931 7.76471 7.29412ZM8.70588 7.76471H14.3529V8.70588H8.70588V7.76471ZM18.1176 7.76471H18.5882C18.713 7.76471 18.8327 7.81429 18.921 7.90254C19.0092 7.99079 19.0588 8.11049 19.0588 8.23529V9.64706C19.0588 9.77187 19.0092 9.89156 18.921 9.97982C18.8327 10.0681 18.713 10.1176 18.5882 10.1176H18.1176V7.76471ZM18.1176 11.0588H18.5882C18.713 11.0588 18.8327 11.1084 18.921 11.1967C19.0092 11.2849 19.0588 11.4046 19.0588 11.5294V12.9412C19.0588 13.066 19.0092 13.1857 18.921 13.2739C18.8327 13.3622 18.713 13.4118 18.5882 13.4118H18.1176V11.0588ZM18.1176 14.3529H18.5882C18.713 14.3529 18.8327 14.4025 18.921 14.4908C19.0092 14.579 19.0588 14.6987 19.0588 14.8235V16.2353C19.0588 16.3601 19.0092 16.4798 18.921 16.5681C18.8327 16.6563 18.713 16.7059 18.5882 16.7059H18.1176V14.3529ZM12.4706 15.7647C12.4706 16.888 12.0244 17.9652 11.2301 18.7595C10.4358 19.5538 9.35856 20 8.23529 20C7.11202 20 6.03476 19.5538 5.24049 18.7595C4.44622 17.9652 4 16.888 4 15.7647C4 14.6414 4.44622 13.5642 5.24049 12.7699C6.03476 11.9756 7.11202 11.5294 8.23529 11.5294C9.35856 11.5294 10.4358 11.9756 11.2301 12.7699C12.0244 13.5642 12.4706 14.6414 12.4706 15.7647ZM8.23529 17.5341C8.07928 17.5341 7.92966 17.5961 7.81935 17.7064C7.70903 17.8167 7.64706 17.9663 7.64706 18.1224C7.64706 18.2784 7.70903 18.428 7.81935 18.5383C7.92966 18.6486 8.07928 18.7106 8.23529 18.7106C8.3913 18.7106 8.54092 18.6486 8.65124 18.5383C8.76156 18.428 8.82353 18.2784 8.82353 18.1224C8.82353 17.9663 8.76156 17.8167 8.65124 17.7064C8.54092 17.5961 8.3913 17.5341 8.23529 17.5341ZM8.23529 12.944C7.24894 12.944 6.48094 13.7139 6.49129 14.784C6.49191 14.8458 6.5047 14.9069 6.52892 14.9637C6.55314 15.0206 6.58832 15.0721 6.63245 15.1154C6.67659 15.1586 6.72881 15.1928 6.78614 15.2159C6.84347 15.2389 6.90479 15.2505 6.96659 15.2499C7.02839 15.2493 7.08946 15.2365 7.14632 15.2123C7.20317 15.188 7.2547 15.1529 7.29797 15.1087C7.34123 15.0646 7.37537 15.0124 7.39845 14.955C7.42153 14.8977 7.43309 14.8364 7.43247 14.7746C7.42682 14.2296 7.77129 13.8852 8.23529 13.8852C8.67953 13.8852 9.03812 14.2541 9.03812 14.7793C9.03812 14.9694 8.97224 15.0758 8.69929 15.2913L8.43859 15.4936C7.96235 15.8739 7.76471 16.1685 7.76471 16.7059C7.76449 16.8235 7.80831 16.9369 7.88754 17.0238C7.96677 17.1107 8.07566 17.1648 8.19277 17.1754C8.30989 17.186 8.42674 17.1524 8.52031 17.0812C8.61389 17.01 8.6774 16.9063 8.69835 16.7906L8.70871 16.6438C8.72471 16.5045 8.80282 16.4047 9.03435 16.2221L9.29506 16.0198C9.77788 15.6339 9.97929 15.3308 9.97929 14.7793C9.97929 13.7402 9.20565 12.944 8.23529 12.944Z" fill="#1A1C1E" fill-opacity="0.6" stroke="#1A1C1E" stroke-opacity="0.6" stroke-width="0.3"/>
</svg>
