<svg width="24" height="24" viewBox="0 0 24 24" fill="none" xmlns="http://www.w3.org/2000/svg">
<path d="M3.1165 11.0983C2.89808 11.0983 2.68862 11.181 2.53417 11.328C2.37973 11.4751 2.29297 11.6746 2.29297 11.8826C2.29297 12.0907 2.37973 12.2901 2.53417 12.4372C2.68862 12.5843 2.89808 12.667 3.1165 12.667H8.05767C8.27609 12.667 8.48556 12.5843 8.64 12.4372C8.79444 12.2901 8.8812 12.0907 8.8812 11.8826C8.8812 11.6746 8.79444 11.4751 8.64 11.328C8.48556 11.181 8.27609 11.0983 8.05767 11.0983H3.1165ZM3.94003 7.96107C3.94003 7.75306 4.02679 7.55357 4.18123 7.40648C4.33568 7.25939 4.54514 7.17676 4.76356 7.17676H9.70473C9.92315 7.17676 10.1326 7.25939 10.2871 7.40648C10.4415 7.55357 10.5283 7.75306 10.5283 7.96107C10.5283 8.16908 10.4415 8.36858 10.2871 8.51566C10.1326 8.66275 9.92315 8.74539 9.70473 8.74539H4.76356C4.54514 8.74539 4.33568 8.66275 4.18123 8.51566C4.02679 8.36858 3.94003 8.16908 3.94003 7.96107ZM4.76356 15.0199C4.54514 15.0199 4.33568 15.1025 4.18123 15.2496C4.02679 15.3967 3.94003 15.5962 3.94003 15.8042C3.94003 16.0122 4.02679 16.2117 4.18123 16.3588C4.33568 16.5059 4.54514 16.5885 4.76356 16.5885H9.70473C9.92315 16.5885 10.1326 16.5059 10.2871 16.3588C10.4415 16.2117 10.5283 16.0122 10.5283 15.8042C10.5283 15.5962 10.4415 15.3967 10.2871 15.2496C10.1326 15.1025 9.92315 15.0199 9.70473 15.0199H4.76356Z" fill="#1A1C1E" fill-opacity="0.6"/>
<path d="M3.1165 10.9807C2.86868 10.9807 2.62993 11.0744 2.45304 11.2429C2.27595 11.4115 2.17532 11.6415 2.17532 11.8826C2.17532 12.1238 2.27595 12.3538 2.45304 12.5224C2.62994 12.6909 2.86868 12.7846 3.1165 12.7846H8.05767C8.30549 12.7846 8.54424 12.6909 8.72113 12.5224C8.89822 12.3538 8.99885 12.1238 8.99885 11.8826C8.99885 11.6415 8.89822 11.4115 8.72113 11.2429C8.54424 11.0744 8.30549 10.9807 8.05767 10.9807H3.1165ZM4.1001 7.32129C3.92301 7.48994 3.82238 7.71995 3.82238 7.96107C3.82238 8.20219 3.92301 8.4322 4.1001 8.60086C4.27699 8.76933 4.51574 8.86303 4.76356 8.86303H9.70473C9.95255 8.86303 10.1913 8.76933 10.3682 8.60086C10.5453 8.4322 10.6459 8.20219 10.6459 7.96107C10.6459 7.71995 10.5453 7.48994 10.3682 7.32129C10.1913 7.15281 9.95255 7.05911 9.70473 7.05911H4.76356C4.51574 7.05911 4.27699 7.15281 4.1001 7.32129ZM4.76356 14.9022C4.51574 14.9022 4.27699 14.9959 4.1001 15.1644C3.92301 15.3331 3.82238 15.5631 3.82238 15.8042C3.82238 16.0453 3.92301 16.2753 4.1001 16.444C4.27699 16.6125 4.51574 16.7062 4.76356 16.7062H9.70473C9.95255 16.7062 10.1913 16.6125 10.3682 16.444C10.5453 16.2753 10.6459 16.0453 10.6459 15.8042C10.6459 15.5631 10.5453 15.3331 10.3682 15.1644C10.1913 14.9959 9.95255 14.9022 9.70473 14.9022H4.76356Z" stroke="#1A1C1E" stroke-opacity="0.6" stroke-width="0.235294"/>
<path d="M21.3117 10.7451C21.2627 10.6266 21.2096 10.51 21.1523 10.3956C21.0039 10.0994 20.6263 10.0275 20.3541 10.2163C20.0919 10.3981 20.0268 10.7543 20.1615 11.0435C20.2958 11.3315 20.3959 11.6357 20.4593 11.9498C20.5621 12.474 20.5621 13.0141 20.4593 13.5384C20.4085 13.7915 20.3334 14.0389 20.235 14.2769C20.1394 14.5106 20.0215 14.7341 19.883 14.944C19.6057 15.3629 19.2539 15.7242 18.846 16.0088C18.4317 16.2954 17.9671 16.4965 17.4781 16.6009C16.9682 16.7065 16.443 16.7065 15.9332 16.6009C15.1993 16.446 14.5259 16.073 13.9965 15.5283C13.6468 15.1688 13.3677 14.7435 13.1744 14.2757C13.0769 14.0377 13.0022 13.7906 12.9514 13.5378C12.7974 12.757 12.8751 11.9467 13.1744 11.2119C13.3676 10.7445 13.6465 10.3196 13.9959 9.96045C14.3455 9.60144 14.759 9.31487 15.2139 9.11637C15.4445 9.01618 15.6868 8.93879 15.932 8.8872C15.9945 8.874 16.0581 8.868 16.1212 8.8578V10.4332C16.1212 10.5325 16.2368 10.5871 16.3135 10.524L18.9299 8.37336C18.9872 8.3263 18.9872 8.23866 18.9299 8.1916L16.3135 6.04093C16.2368 5.97782 16.1212 6.03244 16.1212 6.13181V7.64537C15.9793 7.66165 15.838 7.68386 15.6979 7.71196C15.058 7.8465 14.4503 8.10949 13.9095 8.48585C12.9488 9.15178 12.2429 10.1399 11.9126 11.2812C11.5822 12.4226 11.6479 13.6465 12.0984 14.7436C12.3487 15.3547 12.7126 15.9098 13.1698 16.3778C13.6257 16.8457 14.1651 17.219 14.7584 17.4774C15.6911 17.8828 16.7216 17.9872 17.7134 17.7768C18.5071 17.608 19.2492 17.2438 19.8758 16.7155C20.5025 16.1872 20.995 15.5105 21.3111 14.7436C21.4396 14.4316 21.5382 14.1071 21.603 13.7789C21.7391 13.0961 21.7391 12.392 21.603 11.7092C21.5365 11.3789 21.4389 11.0561 21.3117 10.7451Z" fill="#1A1C1E" fill-opacity="0.6"/>
<path d="M21.603 13.7789L21.7184 13.8019C21.8575 13.1039 21.8575 12.3842 21.7184 11.6862L21.7184 11.686C21.6503 11.3484 21.5506 11.0184 21.4206 10.7006L21.4204 10.7002C21.3704 10.5791 21.316 10.4599 21.2575 10.343C21.0729 9.97438 20.6102 9.89548 20.287 10.1196C19.9697 10.3397 19.9004 10.7616 20.0549 11.0932C20.1852 11.3726 20.2823 11.6679 20.3439 11.9728C20.4437 12.4819 20.4437 13.0064 20.3439 13.5155C20.2946 13.7611 20.2218 14.0011 20.1263 14.2319L20.1262 14.2323C20.0334 14.459 19.9191 14.6757 19.7848 14.8792C19.5157 15.2857 19.1744 15.6362 18.7789 15.9122C18.3774 16.1899 17.9274 16.3846 17.4539 16.4858C16.9599 16.588 16.4511 16.588 15.9572 16.4858C15.2466 16.3357 14.5941 15.9744 14.0809 15.4463L14.0808 15.4462C13.7417 15.0976 13.4708 14.685 13.2832 14.2309C13.1886 14 13.1161 13.7602 13.0668 13.5148C12.9173 12.7567 12.9927 11.9699 13.2833 11.2566C13.4708 10.8029 13.7414 10.3908 14.0802 10.0425C14.4192 9.69432 14.8201 9.41655 15.2609 9.22419L15.2139 9.11637M21.603 13.7789L21.7185 13.8017C21.6521 14.1376 21.5512 14.4695 21.4199 14.7884L21.4199 14.7884C21.0967 15.5726 20.5929 16.2648 19.9517 16.8055C19.3104 17.3461 18.5507 17.719 17.7378 17.8918L17.7378 17.8919C16.722 18.1074 15.6665 18.0005 14.7115 17.5853L14.7115 17.5853C14.1041 17.3207 13.5521 16.9386 13.0856 16.46C12.6178 15.9811 12.2456 15.4132 11.9896 14.7883C11.529 13.6665 11.4618 12.4154 11.7996 11.2485C12.1373 10.0816 12.8591 9.07077 13.8425 8.38916C14.396 8.00393 15.0183 7.73462 15.6737 7.59683L15.6748 7.5966L15.6748 7.59661C15.7838 7.57475 15.8934 7.55638 16.0035 7.54151V6.13181C16.0035 5.93306 16.2347 5.82384 16.3882 5.95004L19.0046 8.10071C19.1191 8.19484 19.1191 8.37012 19.0046 8.46425L16.3882 10.6149C16.2347 10.7411 16.0035 10.6319 16.0035 10.4332V8.99362C15.9881 8.99608 15.9727 8.99885 15.9563 9.0023L15.9562 9.00232C15.7188 9.05227 15.4841 9.12723 15.2607 9.22427L15.2139 9.11637M21.603 13.7789C21.5382 14.1071 21.4396 14.4316 21.3111 14.7436L21.603 11.7092C21.7391 12.392 21.7391 13.0961 21.603 13.7789ZM15.2139 9.11637C14.759 9.31487 14.3455 9.60144 13.9959 9.96045L16.0035 8.87466C15.9796 8.87822 15.9557 8.88219 15.932 8.8872C15.6868 8.93879 15.4445 9.01618 15.2139 9.11637Z" stroke="#1A1C1E" stroke-opacity="0.6" stroke-width="0.235294"/>
</svg>
