<svg width="22" height="22" viewBox="0 0 22 22" fill="none" xmlns="http://www.w3.org/2000/svg">
<path fill-rule="evenodd" clip-rule="evenodd" d="M11 7.25C10.0054 7.25 9.05161 7.64509 8.34835 8.34835C7.64509 9.05161 7.25 10.0054 7.25 11C7.25 11.9946 7.64509 12.9484 8.34835 13.6517C9.05161 14.3549 10.0054 14.75 11 14.75C11.9946 14.75 12.9484 14.3549 13.6517 13.6517C14.3549 12.9484 14.75 11.9946 14.75 11C14.75 10.0054 14.3549 9.05161 13.6517 8.34835C12.9484 7.64509 11.9946 7.25 11 7.25ZM8.75 11C8.75 10.4033 8.98705 9.83097 9.40901 9.40901C9.83097 8.98705 10.4033 8.75 11 8.75C11.5967 8.75 12.169 8.98705 12.591 9.40901C13.0129 9.83097 13.25 10.4033 13.25 11C13.25 11.5967 13.0129 12.169 12.591 12.591C12.169 13.0129 11.5967 13.25 11 13.25C10.4033 13.25 9.83097 13.0129 9.40901 12.591C8.98705 12.169 8.75 11.5967 8.75 11Z" fill="#1A1C1E" fill-opacity="0.6"/>
<path fill-rule="evenodd" clip-rule="evenodd" d="M10.9758 0.25C10.5308 0.25 10.1598 0.25 9.85575 0.27C9.54496 0.282516 9.23843 0.346729 8.94875 0.46C8.615 0.59809 8.31172 0.800573 8.05624 1.05589C7.80075 1.3112 7.59806 1.61434 7.45975 1.948C7.31475 2.298 7.27575 2.668 7.25975 3.07C7.25796 3.21698 7.21897 3.36112 7.14639 3.48895C7.07382 3.61678 6.97005 3.72414 6.84475 3.801C6.71558 3.87132 6.57068 3.90775 6.42361 3.90687C6.27653 3.906 6.13208 3.86785 6.00375 3.796C5.64775 3.608 5.30775 3.457 4.93175 3.407C4.5737 3.3599 4.20987 3.38379 3.86105 3.4773C3.51222 3.57081 3.18524 3.73212 2.89875 3.952C2.65614 4.14648 2.44762 4.38001 2.28175 4.643C2.11175 4.897 1.92575 5.218 1.70375 5.603L1.67875 5.647C1.45575 6.032 1.27075 6.353 1.13675 6.627C0.996751 6.913 0.886751 7.195 0.846751 7.507C0.751352 8.22999 0.947031 8.96127 1.39075 9.54C1.62175 9.841 1.92275 10.06 2.26275 10.274C2.38938 10.3491 2.49489 10.4551 2.5694 10.582C2.6439 10.709 2.68497 10.8528 2.68875 11C2.68497 11.1472 2.6439 11.291 2.5694 11.418C2.49489 11.5449 2.38938 11.6509 2.26275 11.726C1.92275 11.94 1.62275 12.159 1.39075 12.46C1.17087 12.7465 1.00957 13.0735 0.916054 13.4223C0.822543 13.7711 0.798654 14.1349 0.845751 14.493C0.886751 14.805 0.995751 15.087 1.13575 15.373C1.27075 15.647 1.45575 15.968 1.67875 16.353L1.70375 16.397C1.92575 16.782 2.11175 17.103 2.28175 17.357C2.45875 17.62 2.64875 17.857 2.89875 18.047C3.18516 18.2671 3.51211 18.4285 3.86094 18.5222C4.20977 18.6159 4.57363 18.64 4.93175 18.593C5.30775 18.543 5.64775 18.393 6.00375 18.204C6.13196 18.1323 6.27623 18.0943 6.42311 18.0934C6.56999 18.0925 6.7147 18.1289 6.84375 18.199C6.97007 18.2749 7.07476 18.382 7.14778 18.51C7.2208 18.638 7.2597 18.7826 7.26075 18.93C7.27575 19.332 7.31475 19.702 7.46075 20.052C7.59884 20.3857 7.80132 20.689 8.05664 20.9445C8.31195 21.2 8.61509 21.4027 8.94875 21.541C9.23875 21.661 9.53875 21.708 9.85575 21.729C10.1598 21.75 10.5308 21.75 10.9758 21.75H11.0258C11.4708 21.75 11.8418 21.75 12.1458 21.73C12.4638 21.708 12.7628 21.661 13.0528 21.54C13.3865 21.4019 13.6898 21.1994 13.9453 20.9441C14.2008 20.6888 14.4034 20.3857 14.5418 20.052C14.6868 19.702 14.7258 19.332 14.7418 18.93C14.7434 18.7828 14.7823 18.6385 14.8549 18.5105C14.9274 18.3825 15.0313 18.275 15.1568 18.198C15.286 18.1278 15.431 18.0916 15.578 18.0926C15.7251 18.0937 15.8695 18.132 15.9978 18.204C16.3538 18.392 16.6938 18.543 17.0698 18.592C17.7927 18.6874 18.524 18.4917 19.1028 18.048C19.3528 17.856 19.5428 17.62 19.7198 17.357C19.8898 17.103 20.0758 16.782 20.2978 16.397L20.3228 16.353C20.5458 15.968 20.7308 15.647 20.8648 15.373C21.0048 15.087 21.1147 14.804 21.1548 14.493C21.2502 13.77 21.0545 13.0387 20.6108 12.46C20.3798 12.159 20.0788 11.94 19.7388 11.726C19.6121 11.6509 19.5066 11.5449 19.4321 11.418C19.3576 11.291 19.3165 11.1472 19.3128 11C19.3128 10.722 19.4648 10.446 19.7388 10.274C20.0788 10.06 20.3788 9.841 20.6108 9.54C20.8306 9.25352 20.9919 8.92653 21.0854 8.5777C21.179 8.22888 21.2029 7.86506 21.1558 7.507C21.1086 7.1996 21.0106 6.90219 20.8658 6.627C20.695 6.29478 20.5139 5.96795 20.3228 5.647L20.2978 5.603C20.1151 5.27708 19.9223 4.95692 19.7198 4.643C19.5538 4.38036 19.3453 4.14718 19.1028 3.953C18.8163 3.73294 18.4894 3.57146 18.1406 3.47778C17.7917 3.38409 17.4279 3.36004 17.0698 3.407C16.6938 3.457 16.3538 3.607 15.9978 3.796C15.8695 3.86767 15.7253 3.90572 15.5784 3.9066C15.4315 3.90747 15.2868 3.87114 15.1578 3.801C15.0321 3.72438 14.9279 3.61712 14.855 3.48928C14.7821 3.36143 14.7427 3.21717 14.7408 3.07C14.7258 2.668 14.6868 2.298 14.5408 1.948C14.4027 1.61425 14.2002 1.31097 13.9449 1.05549C13.6896 0.800001 13.3864 0.597314 13.0528 0.459C12.7628 0.339 12.4628 0.292 12.1458 0.271C11.8418 0.25 11.4708 0.25 11.0258 0.25H10.9758ZM9.52275 1.845C9.59975 1.813 9.71675 1.784 9.95775 1.767C10.2048 1.75 10.5248 1.75 11.0008 1.75C11.4768 1.75 11.7968 1.75 12.0438 1.767C12.2848 1.784 12.4018 1.813 12.4788 1.845C12.7858 1.972 13.0288 2.215 13.1558 2.522C13.1958 2.618 13.2288 2.769 13.2418 3.126C13.2718 3.918 13.6808 4.681 14.4068 5.1C15.1328 5.519 15.9978 5.492 16.6988 5.122C17.0148 4.955 17.1618 4.908 17.2658 4.895C17.5943 4.85158 17.9267 4.94043 18.1898 5.142C18.2558 5.193 18.3398 5.28 18.4748 5.48C18.6138 5.686 18.7738 5.963 19.0118 6.375C19.2498 6.787 19.4088 7.065 19.5178 7.287C19.6248 7.504 19.6578 7.62 19.6678 7.703C19.7112 8.03157 19.6223 8.36392 19.4208 8.627C19.3568 8.71 19.2428 8.814 18.9408 9.004C18.2688 9.426 17.8128 10.162 17.8128 11C17.8128 11.838 18.2688 12.574 18.9408 12.996C19.2428 13.186 19.3568 13.29 19.4208 13.373C19.6228 13.636 19.7108 13.968 19.6678 14.297C19.6578 14.38 19.6238 14.497 19.5178 14.713C19.4088 14.936 19.2498 15.213 19.0118 15.625C18.7738 16.037 18.6128 16.314 18.4748 16.52C18.3398 16.72 18.2558 16.807 18.1898 16.858C17.9267 17.0596 17.5943 17.1484 17.2658 17.105C17.1618 17.092 17.0158 17.045 16.6988 16.878C15.9988 16.508 15.1328 16.48 14.4068 16.899C13.6808 17.318 13.2718 18.082 13.2418 18.874C13.2288 19.231 13.1958 19.382 13.1558 19.478C13.0929 19.6298 13.0008 19.7677 12.8846 19.8839C12.7685 20.0001 12.6305 20.0922 12.4788 20.155C12.4018 20.187 12.2848 20.216 12.0438 20.233C11.7968 20.25 11.4768 20.25 11.0008 20.25C10.5248 20.25 10.2048 20.25 9.95775 20.233C9.71675 20.216 9.59975 20.187 9.52275 20.155C9.37096 20.0922 9.23303 20.0001 9.11687 19.8839C9.0007 19.7677 8.90857 19.6298 8.84575 19.478C8.80575 19.382 8.77275 19.231 8.75975 18.874C8.72975 18.082 8.32075 17.319 7.59475 16.9C6.86875 16.481 6.00375 16.508 5.30275 16.878C4.98675 17.045 4.83975 17.092 4.73575 17.105C4.40719 17.1484 4.07483 17.0596 3.81175 16.858C3.74575 16.807 3.66175 16.72 3.52675 16.52C3.33863 16.2272 3.15955 15.9288 2.98975 15.625C2.75175 15.213 2.59275 14.935 2.48375 14.713C2.37675 14.496 2.34375 14.38 2.33375 14.297C2.29034 13.9684 2.37918 13.6361 2.58075 13.373C2.64475 13.29 2.75875 13.186 3.06075 12.996C3.73275 12.574 4.18875 11.838 4.18875 11C4.18875 10.162 3.73275 9.426 3.06075 9.004C2.75875 8.814 2.64475 8.71 2.58075 8.627C2.37918 8.36392 2.29034 8.03157 2.33375 7.703C2.34375 7.62 2.37775 7.503 2.48375 7.287C2.59275 7.064 2.75175 6.787 2.98975 6.375C3.22775 5.963 3.38875 5.686 3.52675 5.48C3.66175 5.28 3.74575 5.193 3.81175 5.142C4.07483 4.94043 4.40719 4.85158 4.73575 4.895C4.83975 4.908 4.98575 4.955 5.30275 5.122C6.00275 5.492 6.86875 5.52 7.59475 5.1C8.32075 4.681 8.72975 3.918 8.75975 3.126C8.77275 2.769 8.80575 2.618 8.84575 2.522C8.97275 2.215 9.21575 1.972 9.52275 1.845Z" fill="#1A1C1E" fill-opacity="0.6"/>
</svg>
