<svg width="18" height="18" viewBox="0 0 18 18" fill="none" xmlns="http://www.w3.org/2000/svg">
<path d="M3.85686 8.99956V5.61813C3.86691 4.95345 4.008 4.29729 4.27207 3.68724C4.53614 3.0772 4.91799 2.52525 5.39573 2.06303C5.87348 1.6008 6.43774 1.2374 7.05618 0.99362C7.67462 0.749846 8.33508 0.630497 8.99972 0.642414C9.66436 0.630497 10.3248 0.749846 10.9433 0.99362C11.5617 1.2374 12.126 1.6008 12.6037 2.06303C13.0815 2.52525 13.4633 3.0772 13.7274 3.68724C13.9914 4.29729 14.1325 4.95345 14.1426 5.61813V8.99956M11.5711 15.7496C12.2531 15.7496 12.9072 15.4786 13.3894 14.9964C13.8717 14.5142 14.1426 13.8601 14.1426 13.1781V10.2853M11.5711 15.7496C11.5711 16.1758 11.4018 16.5846 11.1004 16.886C10.799 17.1874 10.3902 17.3567 9.96401 17.3567H8.03544C7.60919 17.3567 7.20041 17.1874 6.89901 16.886C6.59762 16.5846 6.42829 16.1758 6.42829 15.7496C6.42829 15.3233 6.59762 14.9145 6.89901 14.6131C7.20041 14.3117 7.60919 14.1424 8.03544 14.1424H9.96401C10.3902 14.1424 10.799 14.3117 11.1004 14.6131C11.4018 14.9145 11.5711 15.3233 11.5711 15.7496ZM1.92829 7.07098H3.21401C3.3845 7.07098 3.54802 7.13871 3.66858 7.25927C3.78913 7.37983 3.85686 7.54335 3.85686 7.71384V11.571C3.85686 11.7415 3.78913 11.905 3.66858 12.0256C3.54802 12.1461 3.3845 12.2138 3.21401 12.2138H1.92829C1.5873 12.2138 1.26027 12.0784 1.01916 11.8373C0.778037 11.5961 0.642578 11.2691 0.642578 10.9281V8.3567C0.642578 8.01571 0.778037 7.68868 1.01916 7.44756C1.26027 7.20644 1.5873 7.07098 1.92829 7.07098ZM16.0711 12.2138H14.7854C14.6149 12.2138 14.4514 12.1461 14.3309 12.0256C14.2103 11.905 14.1426 11.7415 14.1426 11.571V7.71384C14.1426 7.54335 14.2103 7.37983 14.3309 7.25927C14.4514 7.13871 14.6149 7.07098 14.7854 7.07098H16.0711C16.4121 7.07098 16.7392 7.20644 16.9803 7.44756C17.2214 7.68868 17.3569 8.01571 17.3569 8.3567V10.9281C17.3569 11.2691 17.2214 11.5961 16.9803 11.8373C16.7392 12.0784 16.4121 12.2138 16.0711 12.2138Z" stroke="#1A1C1E" stroke-opacity="0.6" stroke-width="1.5" stroke-linecap="round" stroke-linejoin="round"/>
</svg>
