<svg width="22" height="20" viewBox="0 0 22 20" fill="none" xmlns="http://www.w3.org/2000/svg">
<path d="M13.999 17.128C14.8521 17.3754 15.7359 17.5006 16.624 17.5C18.0526 17.5034 19.4627 17.1776 20.745 16.548C20.7477 16.4907 20.749 16.433 20.749 16.375C20.7491 15.4929 20.4664 14.634 19.9424 13.9244C19.4185 13.2147 18.6808 12.6918 17.8377 12.4322C16.9947 12.1727 16.0906 12.1902 15.2583 12.4823C14.4259 12.7744 13.7091 13.3256 13.213 14.055M13.999 17.128V17.125C13.999 16.012 13.714 14.965 13.213 14.055M13.999 17.128V17.234C12.0749 18.3939 9.86978 19.0047 7.62305 19C5.29205 19 3.11105 18.355 1.24905 17.234L1.24805 17.125C1.24728 15.7095 1.71766 14.3339 2.58503 13.2153C3.4524 12.0966 4.66742 11.2984 6.03854 10.9466C7.40965 10.5948 8.85887 10.7093 10.1577 11.2721C11.4566 11.8349 12.5321 12.814 13.213 14.055M10.999 4.375C10.999 5.27011 10.6435 6.12855 10.0105 6.76149C9.3776 7.39442 8.51915 7.75 7.62405 7.75C6.72894 7.75 5.8705 7.39442 5.23756 6.76149C4.60463 6.12855 4.24905 5.27011 4.24905 4.375C4.24905 3.47989 4.60463 2.62145 5.23756 1.98851C5.8705 1.35558 6.72894 1 7.62405 1C8.51915 1 9.3776 1.35558 10.0105 1.98851C10.6435 2.62145 10.999 3.47989 10.999 4.375ZM19.249 6.625C19.249 7.32119 18.9725 7.98887 18.4802 8.48116C17.9879 8.97344 17.3202 9.25 16.624 9.25C15.9279 9.25 15.2602 8.97344 14.7679 8.48116C14.2756 7.98887 13.999 7.32119 13.999 6.625C13.999 5.92881 14.2756 5.26113 14.7679 4.76884C15.2602 4.27656 15.9279 4 16.624 4C17.3202 4 17.9879 4.27656 18.4802 4.76884C18.9725 5.26113 19.249 5.92881 19.249 6.625Z" stroke="#1A1C1E" stroke-opacity="0.6" stroke-width="1.5" stroke-linecap="round" stroke-linejoin="round"/>
</svg>
